<svg width="24" height="24" viewBox="0 0 24 24" fill="none" xmlns="http://www.w3.org/2000/svg">
<g id="24 / Actions / Attachment ">
<path id="Subtract" fill-rule="evenodd" clip-rule="evenodd" d="M16 4.49251C16.8024 4.61765 17.5467 5.0003 18.1173 5.58818C19.5473 7.06159 19.5297 9.41007 18.0778 10.8619L17.7808 11.159L14.3438 14.596L10.5031 18.4366C9.12524 19.8145 6.88908 19.8072 5.52019 18.4205C4.16005 17.0426 4.17156 14.8238 5.5459 13.4601L11.1776 7.87201C11.7153 7.33847 12.5832 7.34014 13.1188 7.87575C13.656 8.41285 13.656 9.28371 13.1189 9.82083L7.21179 15.7279L8.27245 16.7885L14.1795 10.8815C15.3024 9.75857 15.3024 7.93794 14.1795 6.81505C13.0596 5.6953 11.2452 5.6918 10.1211 6.80724L4.48937 12.3954C2.52805 14.3415 2.51163 17.5078 4.45268 19.4742C6.40621 21.4533 9.59742 21.4636 11.5638 19.4973L15.4044 15.6567L18.8414 12.2197L19.1385 11.9226C21.17 9.89113 21.1945 6.60512 19.1937 4.54349C18.3408 3.66473 17.2105 3.11372 16 2.97961V4.49251Z" fill="#2B323A"/>
</g>
</svg>
