<?xml version="1.0" encoding="UTF-8"?> <svg xmlns="http://www.w3.org/2000/svg" width="100%" height="100%" viewBox="0 0 645 200" fill="none"> <g clip-path="url(#clip0_223_1819)"> <path fill-rule="evenodd" clip-rule="evenodd" d="M100 193.939C151.881 193.939 193.939 151.881 193.939 100C193.939 48.1187 151.881 6.06061 100 6.06061C48.1187 6.06061 6.06061 48.1187 6.06061 100C6.06061 151.881 48.1187 193.939 100 193.939ZM100 200C155.228 200 200 155.228 200 100C200 44.7715 155.228 0 100 0C44.7715 0 0 44.7715 0 100C0 155.228 44.7715 200 100 200Z" fill="#232428"></path> <path fill-rule="evenodd" clip-rule="evenodd" d="M45.8334 79.5455C45.8334 77.7747 26.894 56.4395 39.0152 43.1819C51.879 29.1121 62.5001 52.2728 74.6213 51.1364C78.3334 50.7884 90.6919 38.2532 123.864 51.1364C131.061 53.9316 149.853 31.7164 157.955 42.0455C173.106 61.3637 151.515 73.8637 151.515 78.7879C151.515 82.197 153.764 90.401 155.682 97.7273C162.033 121.99 169.534 153.058 179.924 157.197C181.203 157.707 172.879 164.851 164.137 172.355L164.134 172.358C159.104 176.675 153.936 181.111 150.379 184.47L113.646 195.455L76.3682 193.949L39.5937 175.386L22.4658 158.328L18.9395 152.81C32.4801 139.843 37.7346 117.623 41.6667 100C44.1337 88.9442 45.8334 88.2966 45.8334 79.5455ZM71.8676 86.9597C72.8874 87.8711 84.091 84.7275 84.091 82.4951C84.091 80.2627 69.7397 78.7879 69.7397 78.7879C69.7397 78.7879 69.2123 84.5867 71.8676 86.9597ZM115.909 82.4951C115.909 84.7275 127.113 87.8711 128.133 86.9597C130.788 84.5867 130.26 78.7879 130.26 78.7879C130.26 78.7879 115.909 80.2627 115.909 82.4951Z" fill="#232428"></path> <path fill-rule="evenodd" clip-rule="evenodd" d="M100.379 84.8484C112.97 84.8484 123.485 101.814 123.485 115.067C123.485 128.32 116.651 137.879 100.379 137.879C81.8288 137.879 77.2727 128.32 77.2727 115.067C77.2727 101.814 87.7875 84.8484 100.379 84.8484ZM100 90.909C96.5909 91.414 90.9091 92.8029 90.9091 99.2423C90.9091 100.527 91.7094 100.478 93.1809 100.387H93.1809H93.1809C94.3165 100.318 95.8518 100.223 97.7272 100.698V109.135L88.0744 112.542C87.5032 112.744 87.1212 113.284 87.1212 113.89C87.1212 114.875 88.0959 115.565 89.0255 115.237L98.6687 111.833C99.5302 111.529 100.47 111.529 101.331 111.833L110.974 115.237C111.904 115.565 112.879 114.875 112.879 113.89C112.879 113.284 112.497 112.744 111.926 112.542L102.273 109.135V100.698C104.148 100.223 105.683 100.318 106.819 100.387H106.819H106.819C108.291 100.478 109.091 100.527 109.091 99.2423C109.091 92.8029 103.409 91.414 100 90.909Z" fill="white"></path> </g> <path d="M269.084 135.495C265.385 135.495 261.652 135.361 257.886 135.091C254.12 134.889 250.825 134.418 248 133.677V65.7167C249.48 65.4474 251.06 65.2118 252.741 65.0098C254.423 64.7405 256.138 64.5385 257.886 64.4039C259.635 64.2693 261.35 64.1683 263.031 64.101C264.779 64.0336 266.428 64 267.974 64C272.211 64 276.146 64.3366 279.777 65.0098C283.409 65.6157 286.536 66.6592 289.159 68.1403C291.85 69.6213 293.934 71.5736 295.414 73.9972C296.894 76.4208 297.633 79.4168 297.633 82.9846C297.633 86.2836 296.826 89.1111 295.212 91.467C293.665 93.823 291.479 95.7083 288.655 97.122C292.892 98.5358 296.019 100.623 298.037 103.383C300.054 106.143 301.063 109.644 301.063 113.885C301.063 121.088 298.44 126.508 293.194 130.143C287.949 133.711 279.912 135.495 269.084 135.495ZM260.509 103.181V124.488C261.921 124.622 263.435 124.723 265.049 124.791C266.663 124.859 268.143 124.892 269.488 124.892C272.11 124.892 274.532 124.723 276.751 124.387C279.038 124.051 280.988 123.478 282.602 122.67C284.284 121.795 285.595 120.651 286.536 119.237C287.545 117.823 288.05 116.006 288.05 113.784C288.05 109.812 286.604 107.052 283.712 105.504C280.819 103.955 276.818 103.181 271.707 103.181H260.509ZM260.509 93.1837H269.488C274.33 93.1837 278.13 92.5102 280.887 91.1641C283.644 89.7504 285.023 87.2592 285.023 83.6914C285.023 80.3257 283.577 77.9355 280.685 76.5217C277.861 75.108 274.161 74.4011 269.588 74.4011C267.638 74.4011 265.889 74.4348 264.343 74.5021C262.863 74.5695 261.585 74.6704 260.509 74.8051V93.1837ZM307.744 108.533C307.744 103.888 308.417 99.8151 309.762 96.3142C311.174 92.8132 313.024 89.9189 315.31 87.6297C317.597 85.2738 320.22 83.5229 323.179 82.3787C326.138 81.1669 329.165 80.561 332.258 80.561C339.521 80.561 345.171 82.816 349.206 87.3268C353.309 91.8376 355.36 98.5692 355.36 107.523C355.36 108.197 355.326 108.97 355.259 109.846C355.259 110.654 355.225 111.394 355.158 112.067H320.354C320.691 116.309 322.17 119.608 324.793 121.964C327.483 124.253 331.35 125.397 336.394 125.397C339.354 125.397 342.043 125.127 344.464 124.589C346.953 124.051 348.903 123.478 350.315 122.872L351.93 132.87C351.258 133.206 350.316 133.576 349.105 133.98C347.962 134.317 346.617 134.62 345.07 134.889C343.591 135.226 341.977 135.495 340.227 135.697C338.479 135.899 336.697 136 334.881 136C330.24 136 326.205 135.327 322.775 133.98C319.345 132.567 316.521 130.648 314.301 128.224C312.082 125.733 310.434 122.839 309.358 119.54C308.283 116.174 307.744 112.505 307.744 108.533ZM343.153 103.08C343.153 101.397 342.918 99.8151 342.447 98.3338C341.977 96.7857 341.27 95.4729 340.328 94.3955C339.455 93.2513 338.345 92.3759 336.999 91.77C335.722 91.0965 334.175 90.7602 332.359 90.7602C330.476 90.7602 328.828 91.1307 327.416 91.871C326.003 92.5445 324.793 93.4533 323.784 94.5975C322.843 95.7417 322.103 97.0544 321.565 98.5358C321.027 100.017 320.657 101.532 320.455 103.08H343.153ZM383.837 126.104C387.603 126.104 390.462 125.902 392.412 125.498V111.966C391.739 111.764 390.764 111.562 389.486 111.36C388.208 111.158 386.796 111.057 385.249 111.057C383.905 111.057 382.526 111.158 381.113 111.36C379.769 111.562 378.524 111.933 377.381 112.471C376.304 113.01 375.431 113.784 374.758 114.794C374.085 115.736 373.749 116.948 373.749 118.429C373.749 121.324 374.657 123.344 376.473 124.488C378.289 125.565 380.743 126.104 383.837 126.104ZM382.828 80.561C386.863 80.561 390.26 81.0659 393.017 82.0757C395.774 83.0856 397.96 84.4993 399.574 86.317C401.256 88.1346 402.432 90.3562 403.105 92.9818C403.845 95.5397 404.215 98.3672 404.215 101.464V133.475C402.332 133.879 399.474 134.351 395.64 134.889C391.874 135.495 387.603 135.798 382.828 135.798C379.668 135.798 376.775 135.495 374.153 134.889C371.53 134.283 369.277 133.307 367.394 131.961C365.578 130.615 364.132 128.864 363.056 126.71C362.047 124.556 361.543 121.896 361.543 118.732C361.543 115.703 362.114 113.145 363.257 111.057C364.468 108.97 366.082 107.288 368.1 106.008C370.117 104.662 372.438 103.719 375.06 103.181C377.751 102.575 380.541 102.272 383.434 102.272C384.778 102.272 386.191 102.373 387.671 102.575C389.15 102.709 390.73 102.979 392.412 103.383V101.363C392.412 99.9495 392.244 98.6034 391.908 97.324C391.572 96.0446 390.966 94.9338 390.092 93.9916C389.285 92.9818 388.175 92.2073 386.763 91.669C385.418 91.1307 383.703 90.8611 381.618 90.8611C378.793 90.8611 376.204 91.0631 373.85 91.467C371.496 91.871 369.58 92.3425 368.1 92.8808L366.587 82.9846C368.133 82.4463 370.387 81.9072 373.346 81.3689C376.304 80.8306 379.466 80.561 382.828 80.561ZM448.217 92.8808C447.208 92.5445 445.796 92.2073 443.98 91.871C442.231 91.467 440.18 91.2651 437.826 91.2651C436.481 91.2651 435.036 91.3995 433.488 91.669C432.009 91.9386 430.966 92.1739 430.361 92.3759V134.687H418.154V84.3983C420.509 83.5229 423.434 82.715 426.931 81.9748C430.496 81.1669 434.43 80.763 438.734 80.763C439.541 80.763 440.483 80.8306 441.559 80.9649C442.635 81.0325 443.711 81.1669 444.787 81.3689C445.863 81.5032 446.905 81.7052 447.914 81.9748C448.923 82.1767 449.73 82.3787 450.335 82.5806L448.217 92.8808ZM478.211 64C488.366 64 496.134 65.8513 501.514 69.554C506.962 73.2567 509.685 79.0463 509.685 86.9229C509.685 91.0297 508.946 94.5641 507.466 97.5259C506.054 100.421 503.969 102.81 501.211 104.696C498.454 106.513 495.091 107.859 491.123 108.735C487.156 109.61 482.616 110.048 477.505 110.048H471.149V134.687H458.438V65.7167C461.397 65.0435 464.659 64.6059 468.224 64.4039C471.855 64.1346 475.184 64 478.211 64ZM479.119 75.007C475.89 75.007 473.234 75.108 471.149 75.31V99.1417H477.303C483.423 99.1417 488.13 98.3004 491.426 96.6171C494.722 94.867 496.369 91.6014 496.369 86.8219C496.369 84.5327 495.932 82.614 495.058 81.0659C494.183 79.5178 492.973 78.306 491.426 77.4306C489.879 76.5554 488.029 75.9495 485.878 75.6129C483.792 75.209 481.54 75.007 479.119 75.007ZM534.204 126.104C537.97 126.104 540.829 125.902 542.779 125.498V111.966C542.106 111.764 541.132 111.562 539.854 111.36C538.575 111.158 537.163 111.057 535.617 111.057C534.272 111.057 532.893 111.158 531.48 111.36C530.136 111.562 528.891 111.933 527.748 112.471C526.672 113.01 525.798 113.784 525.125 114.794C524.452 115.736 524.116 116.948 524.116 118.429C524.116 121.324 525.024 123.344 526.84 124.488C528.656 125.565 531.11 126.104 534.204 126.104ZM533.195 80.561C537.231 80.561 540.627 81.0659 543.384 82.0757C546.141 83.0856 548.327 84.4993 549.942 86.317C551.623 88.1346 552.8 90.3562 553.472 92.9818C554.212 95.5397 554.582 98.3672 554.582 101.464V133.475C552.699 133.879 549.841 134.351 546.007 134.889C542.241 135.495 537.97 135.798 533.195 135.798C530.035 135.798 527.143 135.495 524.52 134.889C521.897 134.283 519.644 133.307 517.761 131.961C515.945 130.615 514.499 128.864 513.423 126.71C512.414 124.556 511.91 121.896 511.91 118.732C511.91 115.703 512.482 113.145 513.625 111.057C514.835 108.97 516.449 107.288 518.467 106.008C520.484 104.662 522.805 103.719 525.428 103.181C528.118 102.575 530.908 102.272 533.801 102.272C535.145 102.272 536.558 102.373 538.038 102.575C539.517 102.709 541.097 102.979 542.779 103.383V101.363C542.779 99.9495 542.611 98.6034 542.275 97.324C541.939 96.0446 541.333 94.9338 540.459 93.9916C539.652 92.9818 538.542 92.2073 537.13 91.669C535.785 91.1307 534.07 90.8611 531.985 90.8611C529.16 90.8611 526.571 91.0631 524.217 91.467C521.863 91.871 519.947 92.3425 518.467 92.8808L516.954 82.9846C518.5 82.4463 520.754 81.9072 523.713 81.3689C526.671 80.8306 529.833 80.561 533.195 80.561ZM579.719 125.902C582.947 125.902 585.301 125.531 586.781 124.791C588.261 123.983 589 122.637 589 120.752C589 119.002 588.193 117.554 586.579 116.41C585.032 115.265 582.443 114.019 578.811 112.673C576.592 111.865 574.541 111.024 572.658 110.149C570.842 109.206 569.261 108.129 567.916 106.917C566.571 105.705 565.495 104.258 564.688 102.575C563.948 100.825 563.578 98.7043 563.578 96.2132C563.578 91.3661 565.361 87.5621 568.925 84.8022C572.489 81.9748 577.331 80.561 583.452 80.561C586.546 80.561 589.505 80.864 592.329 81.4698C595.154 82.0081 597.272 82.5473 598.685 83.0856L596.465 92.9818C595.121 92.3759 593.406 91.8376 591.32 91.3661C589.235 90.8278 586.814 90.5582 584.057 90.5582C581.568 90.5582 579.551 90.9955 578.004 91.871C576.458 92.6788 575.684 93.9582 575.684 95.7083C575.684 96.5837 575.818 97.3574 576.087 98.0309C576.423 98.7043 576.962 99.3436 577.702 99.9495C578.441 100.488 579.416 101.06 580.627 101.666C581.838 102.204 583.317 102.777 585.066 103.383C587.958 104.46 590.412 105.537 592.43 106.614C594.448 107.624 596.095 108.803 597.373 110.149C598.718 111.428 599.693 112.909 600.299 114.592C600.904 116.275 601.207 118.295 601.207 120.651C601.207 125.7 599.323 129.537 595.557 132.163C591.858 134.721 586.546 136 579.618 136C574.978 136 571.245 135.596 568.421 134.788C565.596 134.048 563.612 133.442 562.469 132.971L564.587 122.771C566.403 123.512 568.555 124.219 571.043 124.892C573.599 125.565 576.491 125.902 579.719 125.902ZM622.798 125.902C626.027 125.902 628.38 125.531 629.86 124.791C631.34 123.983 632.079 122.637 632.079 120.752C632.079 119.002 631.272 117.554 629.658 116.41C628.112 115.265 625.522 114.019 621.89 112.673C619.671 111.865 617.62 111.024 615.737 110.149C613.921 109.206 612.34 108.129 610.995 106.917C609.651 105.705 608.574 104.258 607.767 102.575C607.028 100.825 606.657 98.7043 606.657 96.2132C606.657 91.3661 608.44 87.5621 612.004 84.8022C615.568 81.9748 620.411 80.561 626.531 80.561C629.625 80.561 632.584 80.864 635.408 81.4698C638.233 82.0081 640.352 82.5473 641.764 83.0856L639.545 92.9818C638.2 92.3759 636.485 91.8376 634.4 91.3661C632.314 90.8278 629.893 90.5582 627.136 90.5582C624.648 90.5582 622.63 90.9955 621.083 91.871C619.537 92.6788 618.763 93.9582 618.763 95.7083C618.763 96.5837 618.897 97.3574 619.167 98.0309C619.503 98.7043 620.041 99.3436 620.781 99.9495C621.52 100.488 622.496 101.06 623.706 101.666C624.917 102.204 626.397 102.777 628.145 103.383C631.037 104.46 633.492 105.537 635.509 106.614C637.527 107.624 639.174 108.803 640.452 110.149C641.797 111.428 642.773 112.909 643.378 114.592C643.983 116.275 644.286 118.295 644.286 120.651C644.286 125.7 642.402 129.537 638.637 132.163C634.937 134.721 629.625 136 622.697 136C618.057 136 614.324 135.596 611.5 134.788C608.675 134.048 606.691 133.442 605.548 132.971L607.666 122.771C609.482 123.512 611.634 124.219 614.123 124.892C616.678 125.565 619.57 125.902 622.798 125.902Z" fill="#232428"></path> <defs> <clipPath id="clip0_223_1819"> <rect width="200" height="200" fill="white"></rect> </clipPath> </defs> </svg>
