<svg width="100%" height="100%" viewBox="0 0 200 48" fill="none" xmlns="http://www.w3.org/2000/svg">
<path d="M64.6201 22.7999C64.6201 21.9332 64.7735 21.0866 65.0801 20.2599C65.4001 19.4199 65.8601 18.6599 66.4601 17.9799C67.0601 17.2866 67.7935 16.7399 68.6601 16.3399C69.5268 15.9266 70.5135 15.7199 71.6201 15.7199C72.9268 15.7199 74.0535 16.0066 75.0001 16.5799C75.9601 17.1532 76.6735 17.8999 77.1401 18.8199L75.0201 20.2799C74.7801 19.7466 74.4668 19.3266 74.0801 19.0199C73.6935 18.6999 73.2801 18.4799 72.8401 18.3599C72.4001 18.2266 71.9668 18.1599 71.5401 18.1599C70.8468 18.1599 70.2401 18.2999 69.7201 18.5799C69.2135 18.8599 68.7868 19.2266 68.4401 19.6799C68.0935 20.1332 67.8335 20.6399 67.6601 21.1999C67.5001 21.7599 67.4201 22.3199 67.4201 22.8799C67.4201 23.5066 67.5201 24.1132 67.7201 24.6999C67.9201 25.2732 68.2001 25.7866 68.5601 26.2399C68.9335 26.6799 69.3735 27.0332 69.8801 27.2999C70.4001 27.5532 70.9668 27.6799 71.5801 27.6799C72.0201 27.6799 72.4668 27.6066 72.9201 27.4599C73.3735 27.3132 73.7935 27.0799 74.1801 26.7599C74.5668 26.4399 74.8668 26.0266 75.0801 25.5199L77.3401 26.8199C77.0601 27.5266 76.6001 28.1266 75.9601 28.6199C75.3335 29.1132 74.6268 29.4866 73.8401 29.7399C73.0535 29.9932 72.2735 30.1199 71.5001 30.1199C70.4868 30.1199 69.5601 29.9132 68.7201 29.4999C67.8801 29.0732 67.1535 28.5132 66.5401 27.8199C65.9401 27.1132 65.4668 26.3266 65.1201 25.4599C64.7868 24.5799 64.6201 23.6932 64.6201 22.7999Z" fill="black"/>
<path d="M78.9111 15.3999H81.5911V26.6399C81.5911 27.1199 81.6711 27.4466 81.8311 27.6199C81.9911 27.7799 82.2111 27.8599 82.4911 27.8599C82.7044 27.8599 82.9244 27.8332 83.1511 27.7799C83.3777 27.7266 83.5777 27.6599 83.7511 27.5799L84.1111 29.6199C83.7511 29.7932 83.3311 29.9266 82.8511 30.0199C82.3711 30.1132 81.9377 30.1599 81.5511 30.1599C80.7111 30.1599 80.0577 29.9399 79.5911 29.4999C79.1377 29.0466 78.9111 28.4066 78.9111 27.5799V15.3999Z" fill="black"/>
<path d="M90.1187 30.1999C89.2654 30.1999 88.4987 30.0599 87.8187 29.7799C87.1387 29.4866 86.5587 29.0866 86.0787 28.5799C85.612 28.0732 85.252 27.4932 84.9987 26.8399C84.7454 26.1866 84.6187 25.4999 84.6187 24.7799C84.6187 24.0466 84.7454 23.3532 84.9987 22.6999C85.252 22.0466 85.612 21.4666 86.0787 20.9599C86.5587 20.4532 87.1387 20.0599 87.8187 19.7799C88.4987 19.4866 89.2654 19.3399 90.1187 19.3399C90.972 19.3399 91.732 19.4866 92.3987 19.7799C93.0787 20.0599 93.6587 20.4532 94.1387 20.9599C94.6187 21.4666 94.9787 22.0466 95.2187 22.6999C95.472 23.3532 95.5987 24.0466 95.5987 24.7799C95.5987 25.4999 95.472 26.1866 95.2187 26.8399C94.9787 27.4932 94.6187 28.0732 94.1387 28.5799C93.672 29.0866 93.0987 29.4866 92.4187 29.7799C91.7387 30.0599 90.972 30.1999 90.1187 30.1999ZM87.3787 24.7799C87.3787 25.3932 87.4987 25.9399 87.7387 26.4199C87.9787 26.8866 88.3054 27.2532 88.7187 27.5199C89.132 27.7866 89.5987 27.9199 90.1187 27.9199C90.6254 27.9199 91.0854 27.7866 91.4987 27.5199C91.912 27.2399 92.2387 26.8666 92.4787 26.3999C92.732 25.9199 92.8587 25.3732 92.8587 24.7599C92.8587 24.1599 92.732 23.6199 92.4787 23.1399C92.2387 22.6599 91.912 22.2866 91.4987 22.0199C91.0854 21.7532 90.6254 21.6199 90.1187 21.6199C89.5987 21.6199 89.132 21.7599 88.7187 22.0399C88.3054 22.3066 87.9787 22.6799 87.7387 23.1599C87.4987 23.6266 87.3787 24.1666 87.3787 24.7799Z" fill="black"/>
<path d="M97.3076 26.0799V19.5199H99.9876V25.4999C99.9876 26.2999 100.134 26.9066 100.428 27.3199C100.721 27.7199 101.154 27.9199 101.728 27.9199C102.074 27.9199 102.414 27.8532 102.748 27.7199C103.094 27.5732 103.408 27.3599 103.688 27.0799C103.981 26.7999 104.228 26.4466 104.428 26.0199V19.5199H107.108V26.9999C107.108 27.2799 107.154 27.4799 107.248 27.5999C107.354 27.7199 107.521 27.7932 107.748 27.8199V29.9999C107.481 30.0399 107.254 30.0666 107.068 30.0799C106.894 30.1066 106.734 30.1199 106.588 30.1199C106.108 30.1199 105.714 30.0132 105.408 29.7999C105.114 29.5732 104.941 29.2666 104.888 28.8799L104.828 28.0399C104.361 28.7466 103.761 29.2866 103.028 29.6599C102.294 30.0199 101.488 30.1999 100.608 30.1999C99.5276 30.1999 98.7076 29.8532 98.1476 29.1599C97.5876 28.4532 97.3076 27.4266 97.3076 26.0799Z" fill="black"/>
<path d="M109.131 24.7599C109.131 23.7466 109.331 22.8332 109.731 22.0199C110.131 21.1932 110.684 20.5399 111.391 20.0599C112.098 19.5799 112.904 19.3399 113.811 19.3399C114.584 19.3399 115.278 19.5332 115.891 19.9199C116.518 20.2932 117.004 20.7732 117.351 21.3599V15.3999H120.031V26.9999C120.031 27.2799 120.078 27.4799 120.171 27.5999C120.264 27.7199 120.424 27.7932 120.651 27.8199V29.9999C120.184 30.0932 119.804 30.1399 119.511 30.1399C119.031 30.1399 118.631 30.0199 118.311 29.7799C118.004 29.5399 117.831 29.2266 117.791 28.8399L117.751 28.1799C117.364 28.8332 116.838 29.3332 116.171 29.6799C115.518 30.0266 114.831 30.1999 114.111 30.1999C113.391 30.1999 112.724 30.0599 112.111 29.7799C111.511 29.4999 110.984 29.1132 110.531 28.6199C110.091 28.1266 109.744 27.5532 109.491 26.8999C109.251 26.2332 109.131 25.5199 109.131 24.7599ZM117.351 26.1599V23.6599C117.218 23.2732 117.004 22.9266 116.711 22.6199C116.418 22.3132 116.091 22.0732 115.731 21.8999C115.371 21.7132 115.011 21.6199 114.651 21.6199C114.238 21.6199 113.864 21.7066 113.531 21.8799C113.198 22.0532 112.904 22.2866 112.651 22.5799C112.411 22.8732 112.224 23.2132 112.091 23.5999C111.971 23.9866 111.911 24.3932 111.911 24.8199C111.911 25.2466 111.978 25.6532 112.111 26.0399C112.258 26.4132 112.464 26.7399 112.731 27.0199C112.998 27.2999 113.304 27.5199 113.651 27.6799C114.011 27.8399 114.398 27.9199 114.811 27.9199C115.064 27.9199 115.318 27.8799 115.571 27.7999C115.838 27.7066 116.084 27.5866 116.311 27.4399C116.551 27.2799 116.758 27.0932 116.931 26.8799C117.118 26.6532 117.258 26.4132 117.351 26.1599Z" fill="black"/>
<path d="M130.961 15.7999H133.761L138.981 29.9999H136.141L134.821 26.4599H129.861L128.561 29.9999H125.721L130.961 15.7999ZM134.321 24.5199L132.361 18.6599L130.321 24.5199H134.321Z" fill="black"/>
<path d="M139.346 24.7599C139.346 23.7466 139.546 22.8332 139.946 22.0199C140.346 21.1932 140.899 20.5399 141.606 20.0599C142.312 19.5799 143.119 19.3399 144.026 19.3399C144.799 19.3399 145.492 19.5332 146.106 19.9199C146.732 20.2932 147.219 20.7732 147.566 21.3599V15.3999H150.246V26.9999C150.246 27.2799 150.292 27.4799 150.386 27.5999C150.479 27.7199 150.639 27.7932 150.866 27.8199V29.9999C150.399 30.0932 150.019 30.1399 149.726 30.1399C149.246 30.1399 148.846 30.0199 148.526 29.7799C148.219 29.5399 148.046 29.2266 148.006 28.8399L147.966 28.1799C147.579 28.8332 147.052 29.3332 146.386 29.6799C145.732 30.0266 145.046 30.1999 144.326 30.1999C143.606 30.1999 142.939 30.0599 142.326 29.7799C141.726 29.4999 141.199 29.1132 140.746 28.6199C140.306 28.1266 139.959 27.5532 139.706 26.8999C139.466 26.2332 139.346 25.5199 139.346 24.7599ZM147.566 26.1599V23.6599C147.432 23.2732 147.219 22.9266 146.926 22.6199C146.632 22.3132 146.306 22.0732 145.946 21.8999C145.586 21.7132 145.226 21.6199 144.866 21.6199C144.452 21.6199 144.079 21.7066 143.746 21.8799C143.412 22.0532 143.119 22.2866 142.866 22.5799C142.626 22.8732 142.439 23.2132 142.306 23.5999C142.186 23.9866 142.126 24.3932 142.126 24.8199C142.126 25.2466 142.192 25.6532 142.326 26.0399C142.472 26.4132 142.679 26.7399 142.946 27.0199C143.212 27.2999 143.519 27.5199 143.866 27.6799C144.226 27.8399 144.612 27.9199 145.026 27.9199C145.279 27.9199 145.532 27.8799 145.786 27.7999C146.052 27.7066 146.299 27.5866 146.526 27.4399C146.766 27.2799 146.972 27.0932 147.146 26.8799C147.332 26.6532 147.472 26.4132 147.566 26.1599Z" fill="black"/>
<path d="M155.657 29.9999L151.797 19.5199H154.577L157.217 27.5599L159.877 19.5199H162.417L158.577 29.9999H155.657Z" fill="black"/>
<path d="M163.833 29.9999V19.5199H166.513V29.9999H163.833ZM163.833 18.0599V15.3999H166.513V18.0599H163.833Z" fill="black"/>
<path d="M172.791 30.1999C171.898 30.1999 171.044 30.0532 170.231 29.7599C169.418 29.4666 168.718 29.0332 168.131 28.4599L169.091 26.7199C169.718 27.2266 170.331 27.5999 170.931 27.8399C171.544 28.0799 172.131 28.1999 172.691 28.1999C173.211 28.1999 173.624 28.1066 173.931 27.9199C174.251 27.7332 174.411 27.4532 174.411 27.0799C174.411 26.8266 174.324 26.6332 174.151 26.4999C173.978 26.3532 173.724 26.2266 173.391 26.1199C173.071 26.0132 172.678 25.8932 172.211 25.7599C171.438 25.5066 170.791 25.2599 170.271 25.0199C169.751 24.7799 169.358 24.4799 169.091 24.1199C168.838 23.7466 168.711 23.2732 168.711 22.6999C168.711 22.0066 168.884 21.4132 169.231 20.9199C169.591 20.4132 170.084 20.0199 170.711 19.7399C171.351 19.4599 172.098 19.3199 172.951 19.3199C173.698 19.3199 174.404 19.4399 175.071 19.6799C175.738 19.9066 176.344 20.2799 176.891 20.7999L175.811 22.4999C175.278 22.0866 174.771 21.7866 174.291 21.5999C173.811 21.3999 173.324 21.2999 172.831 21.2999C172.551 21.2999 172.284 21.3332 172.031 21.3999C171.791 21.4666 171.591 21.5799 171.431 21.7399C171.284 21.8866 171.211 22.0999 171.211 22.3799C171.211 22.6332 171.278 22.8332 171.411 22.9799C171.558 23.1132 171.771 23.2332 172.051 23.3399C172.344 23.4466 172.698 23.5666 173.111 23.6999C173.951 23.9399 174.658 24.1866 175.231 24.4399C175.818 24.6932 176.258 25.0066 176.551 25.3799C176.844 25.7399 176.991 26.2399 176.991 26.8799C176.991 27.9199 176.611 28.7332 175.851 29.3199C175.091 29.9066 174.071 30.1999 172.791 30.1999Z" fill="black"/>
<path d="M183.654 30.1999C182.801 30.1999 182.034 30.0599 181.354 29.7799C180.674 29.4866 180.094 29.0866 179.614 28.5799C179.147 28.0732 178.787 27.4932 178.534 26.8399C178.281 26.1866 178.154 25.4999 178.154 24.7799C178.154 24.0466 178.281 23.3532 178.534 22.6999C178.787 22.0466 179.147 21.4666 179.614 20.9599C180.094 20.4532 180.674 20.0599 181.354 19.7799C182.034 19.4866 182.801 19.3399 183.654 19.3399C184.507 19.3399 185.267 19.4866 185.934 19.7799C186.614 20.0599 187.194 20.4532 187.674 20.9599C188.154 21.4666 188.514 22.0466 188.754 22.6999C189.007 23.3532 189.134 24.0466 189.134 24.7799C189.134 25.4999 189.007 26.1866 188.754 26.8399C188.514 27.4932 188.154 28.0732 187.674 28.5799C187.207 29.0866 186.634 29.4866 185.954 29.7799C185.274 30.0599 184.507 30.1999 183.654 30.1999ZM180.914 24.7799C180.914 25.3932 181.034 25.9399 181.274 26.4199C181.514 26.8866 181.841 27.2532 182.254 27.5199C182.667 27.7866 183.134 27.9199 183.654 27.9199C184.161 27.9199 184.621 27.7866 185.034 27.5199C185.447 27.2399 185.774 26.8666 186.014 26.3999C186.267 25.9199 186.394 25.3732 186.394 24.7599C186.394 24.1599 186.267 23.6199 186.014 23.1399C185.774 22.6599 185.447 22.2866 185.034 22.0199C184.621 21.7532 184.161 21.6199 183.654 21.6199C183.134 21.6199 182.667 21.7599 182.254 22.0399C181.841 22.3066 181.514 22.6799 181.274 23.1599C181.034 23.6266 180.914 24.1666 180.914 24.7799Z" fill="black"/>
<path d="M197.183 21.8399C196.369 21.8399 195.643 21.9999 195.003 22.3199C194.363 22.6266 193.903 23.0732 193.623 23.6599V29.9999H190.943V19.5199H193.403V21.7599C193.776 21.0399 194.249 20.4732 194.823 20.0599C195.396 19.6466 196.003 19.4199 196.643 19.3799C196.789 19.3799 196.903 19.3799 196.983 19.3799C197.063 19.3799 197.129 19.3866 197.183 19.3999V21.8399Z" fill="black"/>
<path fill-rule="evenodd" clip-rule="evenodd" d="M41.5062 20.3498C44.7319 21.9271 46.9514 25.237 46.9514 29.0589C46.9514 34.4149 42.5929 38.7658 37.2212 38.7658C37.1087 38.7658 12.3253 38.7658 12.3253 38.7658C12.2545 38.7658 11.4989 38.7615 11.4304 38.7526C5.65076 38.5161 1.02856 33.7316 1.02856 27.8681C1.02856 22.7369 4.56898 18.4323 9.32584 17.2786C11.1983 11.0587 17.017 6.51416 23.9025 6.51416C29.0154 6.51416 33.5397 9.01942 36.2872 12.8644L33.8297 15.3413C31.7462 12.0921 28.0744 9.94273 23.9025 9.94273C18.2581 9.94273 13.5299 13.8756 12.3848 19.128C12.2304 19.8362 11.6473 20.3708 10.9283 20.4632C7.27755 20.9322 4.45714 24.0733 4.45714 27.8681C4.45714 31.9206 7.67471 35.2273 11.6842 35.3315C11.7174 35.3324 37.0997 35.3372 37.2212 35.3372C40.6978 35.3372 43.5228 32.5254 43.5228 29.0589C43.5228 26.1617 41.5494 23.7215 38.8696 23.0072L41.5062 20.3498Z" fill="#D0E2FC"/>
<path fill-rule="evenodd" clip-rule="evenodd" d="M22.1869 26.6389C22.1869 26.6389 36.5702 12.3627 39.6644 9.29161C39.9861 8.97228 40.5054 8.97324 40.8259 9.29374C41.3879 9.85582 42.2361 10.704 42.7997 11.2676C42.9544 11.4223 43.0411 11.6322 43.0407 11.851C43.0402 12.0699 42.9527 12.2795 42.7973 12.4336C39.8316 15.3755 26.5363 28.5648 24.204 30.8971C23.669 31.4321 22.9435 31.7326 22.1869 31.7326C21.4304 31.7326 20.7048 31.4321 20.1698 30.8971C18.7553 29.4826 15.2019 25.9292 13.7999 24.5272C13.6456 24.3728 13.5588 24.1635 13.5588 23.9453C13.5588 23.7271 13.6456 23.5178 13.7999 23.3634C14.3627 22.8006 15.211 21.9524 15.7738 21.3895C15.9281 21.2352 16.1375 21.1485 16.3557 21.1485C16.5739 21.1485 16.7832 21.2352 16.9376 21.3895C18.4135 22.8654 22.1869 26.6389 22.1869 26.6389Z" fill="#3A85F4"/>
</svg>
