<svg width="76" height="72" viewBox="0 0 76 72" fill="none" xmlns="http://www.w3.org/2000/svg">
<g id="Group">
<path id="Vector" d="M38.5769 51.9052C29.7792 51.9052 22.6318 44.7578 22.6318 35.9601C22.6318 27.1624 29.7792 20.015 38.5769 20.015C47.3746 20.015 54.522 27.1624 54.522 35.9601C54.522 44.7578 47.3746 51.9052 38.5769 51.9052ZM38.5769 23.1579C31.5145 23.1579 25.7747 28.8977 25.7747 35.9601C25.7747 43.0225 31.5145 48.7623 38.5769 48.7623C45.6393 48.7623 51.3791 43.0225 51.3791 35.9601C51.3791 28.8977 45.6393 23.1579 38.5769 23.1579Z" fill="#FE6E36"/>
<path id="Vector_2" d="M75.1991 28.5943L75.1627 28.4244C74.9685 28.1089 74.7259 27.8055 74.4589 27.5507L69.1681 25.2208C64.6904 23.2429 62.045 18.6559 62.579 13.802L62.9551 10.38L62.9309 10.4286C62.9309 10.4286 62.943 10.3922 62.9551 10.3679L63.1007 9.0452C63.0401 8.49914 62.8702 7.90453 62.5911 7.40701C59.072 4.40972 55.0918 2.11625 50.7718 0.575139C50.2015 0.563004 49.5705 0.660082 49.0366 0.878508L47.908 1.70367L45.1413 3.71804C41.1975 6.60611 35.8946 6.60611 31.9508 3.71804L27.5944 0.526599C27.1091 0.356713 26.5751 0.259635 26.0776 0.27177C21.8668 1.66727 17.9594 3.76658 14.4646 6.53331H14.4404C14.1855 6.98229 13.9792 7.50409 13.8822 8.02588L14.5132 13.7899C15.0471 18.6438 12.3896 23.2429 7.924 25.2087L1.84448 27.8905C1.3955 28.2303 0.970781 28.7035 0.679547 29.201C0.23056 31.5552 0 33.97 0 36.3727C0 37.8653 0.0970781 39.3821 0.266965 40.8625C0.461121 41.4086 0.800894 41.9668 1.21348 42.4037L7.91186 45.3645C12.3896 47.3425 15.035 51.9294 14.501 56.7834L13.6516 64.6345C13.7487 65.0957 13.9307 65.5689 14.1734 65.9936L14.2341 66.0422C17.195 68.4206 20.4713 70.3257 23.9662 71.7212C24.5001 71.7576 25.1068 71.6727 25.6529 71.4785L31.9508 66.8673C35.8946 63.9793 41.1975 63.9793 45.1413 66.8673L51.0145 71.1752C51.5727 71.3693 52.2523 71.4543 52.859 71.3936C56.4752 69.8525 59.8244 67.7774 62.8095 65.1927H62.8217C63.0522 64.7923 63.2464 64.3433 63.3434 63.8943L62.5668 56.8076C62.0329 51.9537 64.6904 47.3546 69.156 45.3888L74.6045 42.9861C75.0292 42.5978 75.4054 42.0882 75.6481 41.5542C75.8787 39.8432 76 38.1201 76 36.4091C76 33.788 75.733 31.179 75.1991 28.6307V28.5943ZM72.6265 40.4014L67.894 42.4886C62.1664 45.0126 58.7686 50.898 59.4482 57.1231L60.1277 63.324C57.7372 65.2898 55.1039 66.928 52.2765 68.2022L46.9858 64.3312C41.9256 60.6301 35.1423 60.6301 30.0821 64.3312L24.3787 68.5055C21.697 67.3649 19.1729 65.8966 16.8552 64.1249L17.6197 57.1353C18.2992 50.9101 14.9015 45.0248 9.17388 42.5007L3.30065 39.916C3.17931 38.7511 3.13077 37.574 3.13077 36.3969C3.13077 34.4433 3.30065 32.4896 3.61616 30.5601L9.17388 28.1089C14.9015 25.5849 18.2992 19.6995 17.6197 13.4744L17.0736 8.49914C19.901 6.37555 23.0075 4.71309 26.3324 3.53602L30.0821 6.29061C35.1423 9.99171 41.9256 9.99171 46.9858 6.29061L50.3714 3.80298C53.8177 5.11354 57.0212 6.95802 59.8972 9.2879L59.4361 13.4865C58.7565 19.7117 62.1542 25.597 67.8818 28.121L72.2625 30.0505C72.6508 32.1377 72.845 34.2734 72.845 36.4091C72.845 37.7439 72.7722 39.0909 72.6144 40.4378L72.6265 40.4014Z" fill="#171717"/>
</g>
</svg>
