<svg width="49" height="76" viewBox="0 0 49 76" fill="none" xmlns="http://www.w3.org/2000/svg">
<g id="Group 1321315066">
<g id="Group">
<path id="Vector" d="M33.2735 66.0641H15.5381L15.2846 63.565C14.4153 54.7637 11.0469 46.5781 5.55363 39.8896C1.97999 35.5433 0 30.0379 0 24.3998C0 17.8199 2.58365 11.6506 7.26802 7.02657C11.8679 2.48707 17.9407 0 24.3998 0C24.5084 0 24.6292 0 24.7378 0C31.2332 0.0845118 37.318 2.71643 41.8817 7.41288C46.4453 12.1093 48.9082 18.2787 48.7996 24.7861C48.715 30.2432 46.8679 35.3743 43.4632 39.624C37.8009 46.6988 34.3601 54.9689 33.515 63.5529L33.2735 66.052V66.0641ZM18.3874 62.9251H30.4363C31.4022 53.8461 35.0603 45.1293 41.0245 37.6681C43.9944 33.9617 45.6002 29.4946 45.6726 24.7378C45.7571 19.0755 43.6202 13.703 39.6361 9.59811C35.664 5.50532 30.3639 3.21145 24.7016 3.12693C18.9669 3.04242 13.5581 5.22767 9.4774 9.24802C5.39668 13.2804 3.15108 18.653 3.15108 24.3877C3.15108 29.3014 4.86547 34.0945 7.98033 37.8855C13.8116 44.9724 17.3974 53.6167 18.3874 62.913V62.9251Z" fill="#2B323A"/>
<path id="Vector_2" d="M35.9907 72.8612H12.8103V76.0002H35.9907V72.8612Z" fill="#FE6E36"/>
</g>
</g>
</svg>
