<svg width="80" height="68" viewBox="0 0 80 68" fill="none" xmlns="http://www.w3.org/2000/svg">
<g id="Frame 2087325893">
<path id="Vector" d="M76.6028 67.5001H3.27535C1.52403 67.5001 0.105469 66.0749 0.105469 64.335V10.8172C0.105469 9.06852 1.53279 7.6521 3.27535 7.6521H76.5941C78.3454 7.6521 79.764 9.07726 79.764 10.8172V64.335C79.764 66.0837 78.3366 67.5001 76.5941 67.5001H76.6028ZM3.39794 64.2126H76.4802V10.9308H3.39794V64.2126Z" fill="#1D1D1B"/>
<path id="Vector_2" d="M53.5727 0.535156H0V3.83138H53.5727V0.535156Z" fill="#1D1D1B"/>
<path id="Vector_3" d="M75.5957 3.8663V0.570069L80.0003 0.500122V3.79635L75.5957 3.8663Z" fill="#1D1D1B"/>
<path id="Vector_4" d="M66.7861 3.8663V0.570069L71.1907 0.500122V3.79635L66.7861 3.8663Z" fill="#1D1D1B"/>
<path id="Vector_5" d="M57.9775 3.8663V0.570069L62.3821 0.500122V3.79635L57.9775 3.8663Z" fill="#1D1D1B"/>
<path id="Vector_6" d="M39.7991 45.0123C35.4821 45.0123 31.9707 41.5062 31.9707 37.1958C31.9707 32.8853 35.4821 29.3793 39.7991 29.3793C44.1161 29.3793 47.6274 32.8853 47.6274 37.1958C47.6274 41.5062 44.1161 45.0123 39.7991 45.0123ZM39.7991 32.6668C37.2947 32.6668 35.2632 34.6952 35.2632 37.1958C35.2632 39.6964 37.2947 41.7248 39.7991 41.7248C42.3035 41.7248 44.335 39.6964 44.335 37.1958C44.335 34.6952 42.3035 32.6668 39.7991 32.6668Z" fill="#FE6E36"/>
<path id="Vector_7" d="M56.5066 33.8297L56.4628 33.6198C56.2701 33.2963 56.0074 32.9728 55.7097 32.728L53.3455 31.6876C51.8131 31.0143 50.9024 29.4405 51.0863 27.7706L51.3314 25.5498C51.2614 25.0951 51.0863 24.623 50.8323 24.2383L50.7535 24.1771C49.1511 22.8219 47.3472 21.7814 45.3857 21.0819C44.8954 21.0207 44.3262 21.0644 43.8533 21.2393L42.0407 22.5596C40.6835 23.5475 38.8708 23.5475 37.5136 22.5596L35.4996 21.0819C35.1055 20.9508 34.6502 20.8808 34.2124 20.9071L34.1248 20.9333C32.1983 21.5628 30.4032 22.5246 28.8096 23.7924L28.757 23.8361C28.4943 24.1858 28.2754 24.623 28.1703 25.0601L28.468 27.7793C28.6519 29.4405 27.7412 31.0143 26.2088 31.6963L23.4067 32.9291C23.0828 33.1914 22.7763 33.5412 22.5749 33.9084L22.5398 34.0832C22.3297 35.1674 22.2246 36.2691 22.2246 37.3795C22.2246 38.1052 22.2684 38.8396 22.3647 39.5566V39.6265C22.5574 40.0549 22.8638 40.4921 23.2229 40.8068L26.2176 42.1271C27.75 42.8003 28.6607 44.3741 28.4768 46.0441L28.109 49.384C28.1966 49.9261 28.4505 50.5294 28.8096 50.9578C30.1405 52.007 31.6117 52.8551 33.1791 53.4759L33.3104 53.5284C33.7395 53.5633 34.2299 53.5021 34.6589 53.3535L37.5223 51.2638C38.8796 50.2759 40.6922 50.2759 42.0495 51.2638L44.5889 53.1174C45.0793 53.3185 45.6922 53.4234 46.2176 53.3622L46.2526 53.3448C47.9339 52.6453 49.4838 51.6835 50.8673 50.4944L51.0425 50.3458C51.2351 50.0136 51.384 49.6288 51.454 49.2441L51.1038 46.0528C50.9199 44.3916 51.8306 42.8178 53.363 42.1358L55.6659 41.1216C56.1125 40.7806 56.5241 40.2735 56.7167 39.7489C56.8218 38.962 56.8831 38.1664 56.8831 37.3882C56.8831 36.1991 56.7605 35.01 56.5153 33.8472L56.5066 33.8297ZM53.5293 38.4374L52.0145 39.1019C49.1598 40.3609 47.4698 43.2812 47.8025 46.3851L48.039 48.5184C47.3384 49.0518 46.5854 49.5239 45.7973 49.9174L43.9847 48.5971C41.4628 46.7523 38.0828 46.7523 35.5609 48.5971L33.5644 50.0573C32.8376 49.7163 32.137 49.3053 31.4715 48.842L31.7342 46.3938C32.0758 43.2987 30.377 40.3697 27.5223 39.1106L25.5258 38.2363C25.5083 37.9478 25.4996 37.668 25.4996 37.3795C25.4996 36.7674 25.5433 36.1554 25.6222 35.5434L27.5223 34.704C30.377 33.445 32.067 30.5247 31.7342 27.4208L31.5591 25.847C32.4348 25.2438 33.3717 24.7366 34.3612 24.3519L35.5521 25.2263C38.074 27.0711 41.454 27.0711 43.9759 25.2263L45.0004 24.4743C46.0425 24.9115 47.0232 25.4798 47.9339 26.1618L47.7938 27.4296C47.4523 30.5247 49.1511 33.4537 52.0057 34.7128L53.4067 35.3335C53.5031 36.0155 53.5556 36.6975 53.5556 37.3882C53.5556 37.7467 53.5381 38.0964 53.5118 38.4549L53.5293 38.4374Z" fill="#FE6E36"/>
</g>
</svg>
