<svg width="76" height="72" viewBox="0 0 76 72" fill="none" xmlns="http://www.w3.org/2000/svg">
<g id="Group">
<path id="Vector" d="M70.8943 0.171631H5.10573C2.94707 0.171631 0.426208 3.08366 0.426208 4.88013V54.7757C0.426208 56.5577 2.94707 59.4842 5.10573 59.4842H70.8943C73.053 59.4842 75.5883 56.5722 75.5883 54.7757V4.88013C75.5883 3.09814 73.0675 0.171631 70.8943 0.171631ZM71.8215 55.7029H4.17852V3.92394H71.8215V55.7029Z" fill="#171717"/>
<path id="Vector_2" d="M76 67.4858H0V71.8287H76V67.4858Z" fill="#171717"/>
<g id="Group_2">
<path id="Vector_3" d="M28.6486 31.8561H24.8818V41.7367H28.6486V31.8561Z" fill="#FE6E36"/>
<path id="Vector_4" d="M40.5427 27.959H36.7759V41.7512H40.5427V27.959Z" fill="#FE6E36"/>
<path id="Vector_5" d="M52.4516 15.9777H48.6848V41.7368H52.4516V15.9777Z" fill="#FE6E36"/>
</g>
</g>
</svg>
