<svg width="80" height="68" viewBox="0 0 80 68" fill="none" xmlns="http://www.w3.org/2000/svg">
<g id="Group">
<path id="Vector" d="M49.8408 25.5572L27.8381 46.8867L30.1575 49.2793L52.1601 27.9498L49.8408 25.5572Z" fill="#FE6E36"/>
<path id="Vector_2" d="M31.9081 29.099L29.5835 26.7125L24.7487 31.4236C24.3156 32.5815 24.2537 34.2167 24.731 35.3834L29.3272 40.2536L31.749 37.9643L27.4622 33.43L31.9081 29.1078V29.099Z" fill="#FE6E36"/>
<path id="Vector_3" d="M55.7552 38.9453L51.3623 33.9956L48.8697 36.2053L53.0151 40.8722L48.4366 45.0618L50.6817 47.519L55.7552 42.8786C56.1794 41.7207 56.2325 40.1032 55.7552 38.9453Z" fill="#FE6E36"/>
<g id="Group_2">
<path id="Vector_4" d="M75.8811 7.99194H4.11888C2.21854 7.99194 0 10.5552 0 12.1285V62.9428C0 64.5161 2.21854 67.0793 4.11888 67.0793H75.8811C77.7815 67.0793 80 64.5161 80 62.9428V12.1285C80 10.5552 77.7815 7.99194 75.8811 7.99194ZM76.6943 63.7736H3.30571V11.2977H76.7031V63.7736H76.6943Z" fill="#2B323A"/>
<path id="Vector_5" d="M53.6339 0.920898H0V4.22661H53.6339V0.920898Z" fill="#2B323A"/>
<path id="Vector_6" d="M80 0.920898H75.4392V4.22661H80V0.920898Z" fill="#2B323A"/>
<path id="Vector_7" d="M71.4706 0.920898H66.9098V4.22661H71.4706V0.920898Z" fill="#2B323A"/>
<path id="Vector_8" d="M62.3312 0.920898H57.7704V4.22661H62.3312V0.920898Z" fill="#2B323A"/>
</g>
</g>
</svg>
