<svg width="64" height="80" viewBox="0 0 64 80" fill="none" xmlns="http://www.w3.org/2000/svg">
<g id="Group">
<path id="Vector" d="M41.7605 60.0708H22.1632L21.7521 59.1489C17.8277 50.3408 16.3825 40.7601 17.5785 31.4287C18.7745 22.1097 22.6117 13.0026 28.6666 5.07895L31.9556 0.793213L35.2447 5.07895C41.2995 12.9901 45.1368 22.1097 46.3328 31.4287C47.5288 40.7601 46.0836 50.3408 42.1592 59.1489L41.748 60.0708H41.7605ZM24.2064 56.9438H39.7173C46.8062 40.1995 44.2896 22.035 32.7654 6.9851L31.9681 5.93859L31.1708 6.9851C19.6342 22.0475 17.13 40.1995 24.2189 56.9438H24.2064Z" fill="#171717"/>
<path id="Vector_2" d="M8.90784 53.4678H0L7.4502 34.8298L10.353 35.9885L4.62211 50.3407H8.90784V53.4678Z" fill="#171717"/>
<path id="Vector_3" d="M64 53.4553H55.0922V50.3283H59.3779L53.647 35.9885L56.5498 34.8174L64 53.4553Z" fill="#171717"/>
<path id="Vector_4" d="M26.9597 66.786H23.8326V76.6158H26.9597V66.786Z" fill="#FE6E36"/>
<path id="Vector_5" d="M40.1664 66.786H37.0393V76.6158H40.1664V66.786Z" fill="#FE6E36"/>
<path id="Vector_6" d="M33.5636 63.4845H30.4365V79.2071H33.5636V63.4845Z" fill="#FE6E36"/>
</g>
</svg>
