<svg width="69" height="76" viewBox="0 0 69 76" fill="none" xmlns="http://www.w3.org/2000/svg">
<g id="Group">
<g id="Group_2">
<path id="Vector" d="M25.4672 31.6454V28.4198L3.5866 28.3476L3.43013 28.3115H3.39403C2.44322 28.3115 0 30.7547 0 31.7055L0.168498 56.2099H3.36996L3.09314 31.5491L25.4793 31.6333L25.4672 31.6454Z" fill="#171717"/>
<path id="Vector_2" d="M65.4736 28.7328L43.5087 28.7689L43.4365 31.9944L65.8347 31.9704L65.8106 56.0535L69 56.1257V32.4758C69.0241 31.4288 66.3161 28.7569 65.4616 28.7328H65.4736Z" fill="#171717"/>
<path id="Vector_3" d="M17.0419 22.3178C23.0356 22.3178 27.91 17.3953 27.91 11.3534C27.91 5.31158 23.0356 0.389038 17.0419 0.389038C11.0482 0.389038 6.17383 5.31158 6.17383 11.3534C6.17383 17.3953 11.0482 22.3178 17.0419 22.3178ZM17.0419 3.77104C21.1822 3.77104 24.5521 7.17709 24.5521 11.3534C24.5521 15.5298 21.1822 18.9358 17.0419 18.9358C12.9017 18.9358 9.53175 15.5298 9.53175 11.3534C9.53175 7.17709 12.9017 3.77104 17.0419 3.77104Z" fill="#171717"/>
<path id="Vector_4" d="M51.4881 22.1734C57.4818 22.1734 62.3562 17.2509 62.3562 11.209C62.3562 5.16717 57.4818 0.244629 51.4881 0.244629C45.4944 0.244629 40.62 5.16717 40.62 11.209C40.62 17.2509 45.4944 22.1734 51.4881 22.1734ZM51.4881 18.7914C47.3479 18.7914 43.9779 15.3854 43.9779 11.209C43.9779 7.03268 47.3479 3.62662 51.4881 3.62662C55.6283 3.62662 58.9983 7.03268 58.9983 11.209C58.9983 15.3854 55.6283 18.7914 51.4881 18.7914Z" fill="#171717"/>
<path id="Vector_5" d="M48.0582 44.5475H20.4727C18.7878 44.5475 17.4277 45.9195 17.4277 47.5925V66.3559C17.4277 68.0409 18.7998 69.4009 20.4727 69.4009H48.0582C49.7432 69.4009 51.1032 68.0289 51.1032 66.3559V47.5925C51.1032 45.9075 49.7312 44.5475 48.0582 44.5475ZM20.894 65.9467V48.0258H47.637V65.9467H20.894Z" fill="#FE6E36"/>
<path id="Vector_6" d="M17.4639 72.1932L17.4759 75.6715L50.5135 75.7558L50.4894 72.2895L17.4639 72.1932Z" fill="#FE6E36"/>
</g>
</g>
</svg>
