<svg width="80" height="76" viewBox="0 0 80 76" fill="none" xmlns="http://www.w3.org/2000/svg">
<g id="Group 2085661145">
<g id="Group">
<path id="Vector" d="M61.6056 43.0664L61.4654 30.8794L37.0787 22.2364L38.1878 19.1132L64.7544 28.5338L64.9201 43.0282L61.6056 43.0664Z" fill="#2B323A"/>
<path id="Vector_2" d="M67.6674 63.8821L65.118 66.0001L72.9059 75.3741L75.4553 73.256L67.6674 63.8821Z" fill="#2B323A"/>
<path id="Vector_3" d="M79.7968 21.1656C80.1283 20.0183 80.0645 18.4248 79.5291 17.303C79.2742 17.0608 78.981 16.8696 78.6495 16.7166L41.362 0.858218C40.5844 0.526773 39.7048 0.552269 38.9526 0.921958L1.09144 19.6358C0.912975 19.7251 0.747252 19.8271 0.607026 19.9418C-0.0048725 21.0254 -0.208839 22.8738 0.250085 24.1996C0.51779 24.48 0.849235 24.7222 1.21892 24.888L38.3025 40.963C38.6722 41.1288 39.0674 41.2052 39.4498 41.2052C39.896 41.2052 40.3294 41.1033 40.7373 40.8993L78.8025 21.9815C79.1977 21.7775 79.5419 21.5098 79.7968 21.1783V21.1656ZM39.4371 37.8398L3.37331 22.1982L40.2402 3.98145L76.5206 19.4064L39.4498 37.8398H39.4371Z" fill="#2B323A"/>
<path id="Vector_4" d="M43.6056 54.3356C33.3308 55.5721 23.5022 53.609 14.3874 48.4971C14.3365 48.4716 14.2982 48.4078 14.2982 48.3568L14.5149 28.5849L11.2005 28.5466L10.9838 48.3186C10.9838 48.6883 11.0348 49.0452 11.1367 49.3767C11.3789 49.9121 11.7104 50.4475 12.0928 50.8937C12.2968 51.0721 12.5135 51.2378 12.7557 51.3781C20.6084 55.7888 28.971 58.007 37.6651 58.007C39.7557 58.007 41.8591 57.8795 43.988 57.6245L43.5928 54.3356H43.6056Z" fill="#2B323A"/>
<path id="Vector_5" d="M73.2444 56.8086L54.0461 48.3568C54.0461 48.3568 53.9951 48.344 53.9697 48.3313C52.8606 48.752 51.5985 49.8356 51.0121 51.0084L56.175 71.1627C57.1311 72.0169 58.7246 72.6797 60.0249 72.5778L73.9711 60.9389C74.2515 59.7152 73.9966 57.9432 73.2444 56.8086ZM59.0561 69.0721L54.76 52.2831L70.7459 59.32L59.0688 69.0721H59.0561Z" fill="#FE6E36"/>
</g>
</g>
</svg>
