<svg width="44" height="44" viewBox="0 0 44 44" fill="none" xmlns="http://www.w3.org/2000/svg">
<g id="Frame 2087325721" clip-path="url(#clip0_352_2296)">
<rect id="Rectangle 3976584" x="0.25" y="0.4375" width="43" height="43" rx="21.5" stroke="white"/>
<g id="Group 3627">
<path id="Logo" fill-rule="evenodd" clip-rule="evenodd" d="M27.9911 22.2647C28.1134 21.8528 27.9911 21.5645 27.4202 21.5645H25.5172C25.0278 21.5645 24.8104 21.8253 24.688 22.1137C24.688 22.1137 23.7229 24.5027 22.35 26.0405C21.9015 26.4936 21.7112 26.6309 21.4665 26.6309C21.3442 26.6309 21.1675 26.4936 21.1675 26.0817V22.2647C21.1675 21.7704 21.0315 21.5645 20.6237 21.5645H17.6333C17.3343 21.5645 17.144 21.7979 17.144 22.0038C17.144 22.4706 17.8236 22.5805 17.9052 23.8711V26.6995C17.9052 27.3174 17.7964 27.4272 17.5518 27.4272C16.9129 27.4272 15.3361 25.0382 14.4118 22.2922C14.2215 21.7841 14.0448 21.5645 13.5555 21.5645H11.6525C11.1087 21.5645 11 21.8253 11 22.1137C11 22.6217 11.6389 25.148 14.004 28.4844C15.5808 30.7636 17.7964 31.9994 19.8082 31.9994C21.0179 31.9994 21.1675 31.7248 21.1675 31.2579V29.5279C21.1675 28.9787 21.2762 28.8689 21.6704 28.8689C21.9558 28.8689 22.4316 29.0062 23.5598 30.1046C24.8511 31.409 25.0686 31.9994 25.789 31.9994H27.692C28.2358 31.9994 28.5076 31.7248 28.3445 31.1893C28.1678 30.6538 27.5561 29.8712 26.7405 28.9375C26.292 28.4021 25.6259 27.8391 25.4356 27.5508C25.1502 27.1801 25.2317 27.0153 25.4356 26.6995C25.4356 26.6858 27.76 23.3906 27.9911 22.2647Z" fill="white"/>
<g id="hr">
<path d="M28.6002 18.087V15.1653C28.6002 14.2348 27.9182 13.6522 26.8451 13.6522C26.0929 13.6522 25.451 13.9739 25.0799 14.5044V12H24.0469V18.087H25.0799V15.8261C25.0799 15.0348 25.7117 14.4783 26.4539 14.4783C27.156 14.4783 27.5571 14.8435 27.5571 15.4696V18.087H28.6002Z" fill="white"/>
<path d="M32.5822 14.5392L32.7426 13.7044C32.6122 13.6696 32.4819 13.6522 32.3214 13.6522C31.6695 13.6522 31.1781 14.0087 30.9173 14.5044V13.7739H29.8843V18.087H30.9173V15.8783C30.9173 15.0957 31.4288 14.4783 32.181 14.4783C32.3415 14.4783 32.4718 14.5044 32.5822 14.5392Z" fill="white"/>
</g>
</g>
</g>
<defs>
<clipPath id="clip0_352_2296">
<rect width="44" height="44" fill="white"/>
</clipPath>
</defs>
</svg>
