<svg width="44" height="44" viewBox="0 0 44 44" fill="none" xmlns="http://www.w3.org/2000/svg">
<g id="Frame 2087325722" clip-path="url(#clip0_352_2293)">
<rect id="Rectangle 3976584" x="0.25" y="0.4375" width="43" height="43" rx="21.5" stroke="white"/>
<path id="Vector" d="M33 21.6176V22.3521C32.683 22.3521 32.3691 22.3439 32.056 22.3539C30.6756 22.3984 29.2943 22.4433 27.9308 22.6935C26.8099 22.8991 25.7435 23.2426 24.8315 23.9599C23.8061 24.7657 23.2089 25.8398 22.8781 27.0807C22.5749 28.2179 22.4651 29.3823 22.4067 30.5519C22.3695 31.2912 22.3609 32.0317 22.3384 32.7714C22.3362 32.8432 22.3237 32.914 22.3142 33H21.6452C21.6452 32.7788 21.6556 32.5515 21.6434 32.3251C21.5816 31.1706 21.5431 30.0131 21.4393 28.8621C21.3451 27.8165 21.1215 26.7912 20.6579 25.8359C19.9063 24.2861 18.6427 23.3653 17.0093 22.9104C15.965 22.6196 14.8942 22.496 13.8161 22.4377C12.9326 22.3897 12.047 22.3759 11.1626 22.3465C11.1133 22.3448 11.064 22.3387 11 22.3336V21.66C11.1431 21.66 11.285 21.6651 11.4264 21.6591C12.4543 21.615 13.4844 21.5973 14.5098 21.5161C15.8097 21.4128 17.0954 21.2106 18.2768 20.6079C19.7286 19.8677 20.6077 18.6649 21.0579 17.1254C21.3394 16.1632 21.4774 15.1751 21.534 14.1774C21.5928 13.1448 21.6218 12.11 21.6642 11.0765C21.6651 11.0562 21.6729 11.0363 21.6811 11H22.3604C22.3604 11.4714 22.3475 11.9359 22.3626 12.3995C22.4141 13.9506 22.488 15.5 22.9014 17.0092C23.5246 19.284 25.0217 20.6416 27.2977 21.1799C28.5497 21.4763 29.825 21.5783 31.1063 21.6146C31.7312 21.6323 32.3574 21.6176 33 21.6176Z" fill="white"/>
</g>
<defs>
<clipPath id="clip0_352_2293">
<rect width="44" height="44" fill="white"/>
</clipPath>
</defs>
</svg>
