<svg width="44" height="44" viewBox="0 0 44 44" fill="none" xmlns="http://www.w3.org/2000/svg">
<g id="Frame 2087325718" clip-path="url(#clip0_352_2287)">
<rect id="Rectangle 3976584" x="0.25" y="0.4375" width="43" height="43" rx="21.5" stroke="white"/>
<path id="Vector" d="M11 21.1509C11.2478 20.7544 11.641 20.56 12.0557 20.4013C17.6029 18.2759 23.1508 16.1523 28.6985 14.0284C29.49 13.7254 30.2814 13.422 31.0736 13.1206C31.178 13.0808 31.2849 13.0408 31.3943 13.0214C32.0725 12.9014 32.5946 13.2958 32.5635 13.9844C32.5382 14.5461 32.4142 15.1069 32.2975 15.6603C31.6383 18.7866 30.9686 21.9107 30.3015 25.0354C29.9535 26.6662 29.6036 28.2966 29.2543 29.9273C29.2439 29.9751 29.23 30.0222 29.217 30.0694C28.9056 31.1958 28.0643 31.1666 27.3877 30.681C25.8135 29.5515 24.2579 28.3963 22.6946 27.2517C22.6383 27.2104 22.5813 27.1704 22.5117 27.1207C22.4626 27.1622 22.4139 27.199 22.37 27.2409C21.5666 28.0065 20.7632 28.7723 19.9609 29.5391C19.7278 29.7619 19.4591 29.8869 19.1107 29.8744C19.1387 29.4433 19.1639 29.0259 19.1931 28.6087C19.2725 27.4811 19.3582 26.3539 19.4301 25.2258C19.4457 24.9831 19.5093 24.8037 19.7038 24.6298C22.6578 21.9901 25.6022 19.34 28.5489 16.6921C28.6011 16.6453 28.6653 16.6041 28.6987 16.5456C28.7401 16.4731 28.7983 16.3616 28.7701 16.3106C28.7389 16.2538 28.6096 16.2074 28.5389 16.2242C28.3651 16.2654 28.1845 16.3199 28.0343 16.4136C25.4385 18.031 22.8467 19.6548 20.2542 21.2777C19.1126 21.9923 17.9729 22.71 16.8275 23.4184C16.7463 23.4686 16.6135 23.4916 16.524 23.4642C14.9434 22.9805 13.366 22.4868 11.7876 21.9959C11.4665 21.896 11.1736 21.7569 11 21.446L11 21.1509Z" fill="white"/>
</g>
<defs>
<clipPath id="clip0_352_2287">
<rect width="44" height="44" fill="white"/>
</clipPath>
</defs>
</svg>
