<svg width="448" height="80" viewBox="0 0 448 80" fill="none" xmlns="http://www.w3.org/2000/svg">
<g clip-path="url(#clip0_3342_8747)">
<g clip-path="url(#clip1_3342_8747)">
<mask id="mask0_3342_8747" style="mask-type:luminance" maskUnits="userSpaceOnUse" x="0" y="3" width="327" height="74">
<path d="M326.85 3.36133H0.519287V76.9616H326.85V3.36133Z" fill="white"/>
</mask>
<g mask="url(#mask0_3342_8747)">
<path d="M116.732 47.8295C113.475 43.8067 113.364 37.4241 116.627 33.3487C118.637 30.8378 121.339 29.9372 122.612 29.6086H141.819V20.4981H122.749C120.843 20.8268 114.213 22.2071 109.71 28.1625C104.286 35.3404 104.417 45.9167 109.814 53.0158C114.33 58.9513 120.928 60.345 122.853 60.6802H141.923V51.5696H122.716C121.45 51.241 118.761 50.3404 116.732 47.8295Z" fill="#169788"/>
<path d="M174.652 41.6901C174.541 42.7221 174.064 45.8575 171.5 48.1515C167.943 51.3264 162.056 51.3855 158.44 48.2698C155.798 45.989 155.288 42.7943 155.164 41.7689L155.066 20.7084H146.85V41.5652C147.144 43.6489 148.39 50.9057 153.761 55.8224C160.236 61.7515 169.776 61.6136 176.179 55.7107C181.531 50.7742 182.79 43.5569 183.09 41.4534V20.5967H174.874C174.802 27.63 174.73 34.6633 174.652 41.6966V41.6901Z" fill="#169788"/>
<path d="M215.676 20.991C215.023 20.7807 214.449 20.6755 214.038 20.6295H187.756C187.756 33.6773 187.756 46.7251 187.75 59.7731H195.444V44.2733H208.262C210.67 49.4399 213.085 54.6064 215.493 59.7731C217.862 59.7401 220.231 59.7137 222.606 59.6806C220.263 54.4683 217.921 49.2558 215.584 44.0433C216.309 43.7409 220.721 41.7887 222.548 36.6813C222.744 36.1291 224.375 31.3307 221.843 26.5454C221.458 25.8158 219.566 22.2466 215.676 20.991ZM195.444 36.1949V36.1094C195.503 36.1357 195.562 36.1686 195.627 36.1949H195.444ZM213.979 35.8136C207.799 35.8728 201.625 35.9253 195.444 35.9845V29.2864H214.024C214.024 29.2864 214.024 29.2996 214.024 29.3062C214.207 29.4705 215.598 30.7851 215.46 32.836C215.343 34.5779 214.207 35.623 213.979 35.8202V35.8136Z" fill="#169788"/>
<path d="M228.63 29.1351H233.31V51.4708H228.63V59.753H245.533V51.4708H241.004V29.1351H245.533V20.8529H228.63V29.1351Z" fill="#169788"/>
<path d="M250.963 29.0563H264.995V59.6745H272.539V29.0563H286.492V20.7741H250.963V29.0563Z" fill="#169788"/>
<path d="M319.352 20.7149L309.419 41.4994L299.486 20.7149C296.993 20.7347 294.493 20.7544 292 20.7741V59.6022H299.316V37.3517L305.17 49.6041C307.996 49.6041 310.822 49.5976 313.648 49.591L313.667 49.6041L319.534 37.332V59.5954H326.851V20.7741C324.351 20.7544 321.851 20.7347 319.352 20.7149Z" fill="#169788"/>
<path d="M37.0596 3.36133C16.8805 3.36133 0.519287 19.8403 0.519287 40.1646C0.519287 60.489 16.8805 76.968 37.0596 76.968C50.0533 76.968 61.4611 70.1253 67.9355 59.8314H100.886V51.556C91.723 51.5494 82.5604 51.5363 73.3977 51.5297C73.3782 49.1634 73.3649 46.8036 73.3454 44.4373H100.971V36.1616C91.7692 36.1353 82.567 36.1024 73.3649 36.0762C73.3454 33.7295 73.326 31.3829 73.3065 29.0362C82.5281 29.0099 91.7492 28.9836 100.971 28.9573V20.6817H68.0528C61.5984 10.2829 50.1316 3.36133 37.0596 3.36133Z" fill="#169788"/>
<path d="M54.2631 20.531V44.6546C53.1798 39.5604 48.6963 35.6953 43.3643 35.5968V35.5902C38.548 35.6033 33.7316 35.6231 28.9218 35.6362C27.7667 35.176 27.0879 34.0061 27.2706 32.8886C27.4142 32.0078 28.0668 31.2716 28.9544 30.9561V30.9429H52.24V21.9179H52.2335V20.5375H16.5676V60.4829H18.532V35.8334C19.5697 40.3163 23.3027 43.9842 28.1386 44.6941C33.2225 44.7269 38.3065 44.7664 43.3839 44.7992C43.5471 44.7992 44.65 44.8321 45.2634 45.7786C45.7986 46.5937 45.642 47.6257 45.1786 48.2896C44.8262 48.7892 44.3433 49.0126 44.1214 49.0981C36.2442 49.2099 28.367 49.3281 20.4964 49.4399V58.3532V60.5221H56.2275V20.531H54.2631ZM18.532 30.7851V22.0954H27.486C23.0417 23.0025 19.5305 26.4535 18.532 30.7851ZM44.7348 58.34C49.5316 57.6564 53.2842 53.9754 54.2631 49.3873V58.34H44.7348Z" fill="white"/>
</g>
</g>
</g>
<defs>
<clipPath id="clip0_3342_8747">
<rect width="447" height="80" fill="white" transform="translate(0.5)"/>
</clipPath>
<clipPath id="clip1_3342_8747">
<rect width="327" height="74" fill="white" transform="translate(0 3)"/>
</clipPath>
</defs>
</svg>
