<svg width="259" height="80" viewBox="0 0 259 80" fill="none" xmlns="http://www.w3.org/2000/svg">
<mask id="mask0_1759_925" style="mask-type:luminance" maskUnits="userSpaceOnUse" x="0" y="0" width="81" height="80">
<path d="M80.5 0H0.5V80H80.5V0Z" fill="white"/>
</mask>
<g mask="url(#mask0_1759_925)">
<path fill-rule="evenodd" clip-rule="evenodd" d="M40.5 77.5756C61.2524 77.5756 78.0756 60.7524 78.0756 40C78.0756 19.2475 61.2524 2.42424 40.5 2.42424C19.7475 2.42424 2.92424 19.2475 2.92424 40C2.92424 60.7524 19.7475 77.5756 40.5 77.5756ZM40.5 80C62.5912 80 80.5 62.0912 80.5 40C80.5 17.9086 62.5912 0 40.5 0C18.4086 0 0.5 17.9086 0.5 40C0.5 62.0912 18.4086 80 40.5 80Z" fill="#232428"/>
<path fill-rule="evenodd" clip-rule="evenodd" d="M18.8334 31.8182C18.8334 31.1098 11.2576 22.5758 16.1061 17.2727C21.2516 11.6448 25.5 20.9091 30.3485 20.4545C31.8334 20.3153 36.7768 15.3012 50.0456 20.4545C52.9244 21.5726 60.4412 12.6865 63.682 16.8182C69.7424 24.5454 61.106 29.5454 61.106 31.5151C61.106 32.8788 62.0056 36.1604 62.7728 39.0909C65.3132 48.7959 68.3136 61.2232 72.4696 62.8787C72.9812 63.0828 69.6516 65.9403 66.1548 68.9419L66.1536 68.9431C64.1416 70.6699 62.0744 72.4443 60.6516 73.7879L45.9584 78.1819L31.0473 77.5795L16.3375 70.1544L9.48632 63.3312L8.07581 61.1239C13.492 55.9371 15.5938 47.0491 17.1667 40C18.1535 35.5776 18.8334 35.3186 18.8334 31.8182ZM29.247 34.7838C29.655 35.1484 34.1364 33.891 34.1364 32.998C34.1364 32.105 28.3959 31.5151 28.3959 31.5151C28.3959 31.5151 28.1849 33.8346 29.247 34.7838ZM46.8636 32.998C46.8636 33.891 51.3452 35.1484 51.7532 34.7838C52.8152 33.8346 52.604 31.5151 52.604 31.5151C52.604 31.5151 46.8636 32.105 46.8636 32.998Z" fill="#232428"/>
<path fill-rule="evenodd" clip-rule="evenodd" d="M40.6516 33.9394C45.688 33.9394 49.894 40.7256 49.894 46.0268C49.894 51.328 47.1604 55.1516 40.6516 55.1516C33.2315 55.1516 31.4091 51.328 31.4091 46.0268C31.4091 40.7256 35.615 33.9394 40.6516 33.9394ZM40.5 36.3636C39.1363 36.5656 36.8636 37.1212 36.8636 39.697C36.8636 40.2108 37.1837 40.1912 37.7723 40.1548C38.2266 40.1272 38.8407 40.0892 39.5909 40.2792V43.654L35.7297 45.0168C35.5013 45.0976 35.3485 45.3136 35.3485 45.556C35.3485 45.95 35.7383 46.226 36.1102 46.0948L39.9675 44.7332C40.3121 44.6116 40.688 44.6116 41.0324 44.7332L44.8896 46.0948C45.2616 46.226 45.6516 45.95 45.6516 45.556C45.6516 45.3136 45.4988 45.0976 45.2704 45.0168L41.4092 43.654V40.2792C42.1592 40.0892 42.7732 40.1272 43.2276 40.1548C43.8164 40.1912 44.1364 40.2108 44.1364 39.697C44.1364 37.1212 41.8636 36.5656 40.5 36.3636Z" fill="white"/>
</g>
<path d="M108.134 54.198C106.654 54.198 105.161 54.1444 103.654 54.0364C102.148 53.9556 100.83 53.7672 99.7 53.4708V26.2867C100.292 26.179 100.924 26.0848 101.596 26.004C102.269 25.8962 102.955 25.8154 103.654 25.7616C104.354 25.7078 105.04 25.6674 105.712 25.6404C106.412 25.6135 107.071 25.6 107.69 25.6C109.384 25.6 110.958 25.7347 112.411 26.004C113.864 26.2463 115.114 26.6637 116.164 27.2562C117.24 27.8486 118.074 28.6295 118.666 29.5989C119.258 30.5684 119.553 31.7668 119.553 33.1939C119.553 34.5135 119.23 35.6445 118.585 36.5868C117.966 37.5292 117.092 38.2834 115.962 38.8488C117.657 39.4144 118.908 40.2492 119.715 41.3532C120.522 42.4572 120.925 43.8576 120.925 45.554C120.925 48.4352 119.876 50.6032 117.778 52.0572C115.68 53.4844 112.465 54.198 108.134 54.198ZM104.704 41.2724V49.7952C105.268 49.8488 105.874 49.8892 106.52 49.9164C107.165 49.9436 107.757 49.9568 108.295 49.9568C109.344 49.9568 110.313 49.8892 111.2 49.7548C112.115 49.6204 112.895 49.3912 113.541 49.068C114.214 48.718 114.738 48.2604 115.114 47.6948C115.518 47.1292 115.72 46.4024 115.72 45.5136C115.72 43.9248 115.142 42.8208 113.985 42.2016C112.828 41.582 111.227 41.2724 109.183 41.2724H104.704ZM104.704 37.2735H108.295C110.232 37.2735 111.752 37.0041 112.855 36.4657C113.958 35.9002 114.509 34.9037 114.509 33.4766C114.509 32.1303 113.931 31.1742 112.774 30.6087C111.644 30.0432 110.164 29.7605 108.335 29.7605C107.555 29.7605 106.856 29.774 106.237 29.8009C105.645 29.8278 105.134 29.8682 104.704 29.9221V37.2735ZM123.598 43.4132C123.598 41.5552 123.867 39.9261 124.405 38.5257C124.97 37.1253 125.71 35.9676 126.624 35.0519C127.539 34.1096 128.588 33.4092 129.772 32.9515C130.955 32.4668 132.166 32.2244 133.403 32.2244C136.308 32.2244 138.568 33.1264 140.182 34.9308C141.824 36.7351 142.644 39.4277 142.644 43.0092C142.644 43.2788 142.63 43.588 142.604 43.9384C142.604 44.2616 142.59 44.5576 142.563 44.8268H128.642C128.776 46.5236 129.368 47.8432 130.417 48.7856C131.493 49.7012 133.04 50.1588 135.058 50.1588C136.242 50.1588 137.317 50.0508 138.286 49.8356C139.281 49.6204 140.061 49.3912 140.626 49.1488L141.272 53.148C141.003 53.2824 140.626 53.4304 140.142 53.592C139.685 53.7268 139.147 53.848 138.528 53.9556C137.936 54.0904 137.291 54.198 136.591 54.2788C135.892 54.3596 135.179 54.4 134.452 54.4C132.596 54.4 130.982 54.1308 129.61 53.592C128.238 53.0268 127.108 52.2592 126.22 51.2896C125.333 50.2932 124.674 49.1356 124.243 47.816C123.813 46.4696 123.598 45.002 123.598 43.4132ZM137.761 41.232C137.761 40.5588 137.667 39.9261 137.479 39.3336C137.291 38.7143 137.008 38.1892 136.631 37.7582C136.282 37.3006 135.838 36.9504 135.3 36.708C134.789 36.4386 134.17 36.3041 133.444 36.3041C132.69 36.3041 132.031 36.4523 131.466 36.7484C130.901 37.0178 130.417 37.3814 130.014 37.839C129.637 38.2967 129.341 38.8218 129.126 39.4144C128.911 40.0068 128.763 40.6128 128.682 41.232H137.761ZM154.035 50.4416C155.541 50.4416 156.685 50.3608 157.465 50.1992V44.7864C157.196 44.7056 156.806 44.6248 156.294 44.544C155.783 44.4632 155.218 44.4228 154.6 44.4228C154.062 44.4228 153.51 44.4632 152.945 44.544C152.408 44.6248 151.91 44.7732 151.452 44.9884C151.022 45.204 150.672 45.5136 150.403 45.9176C150.134 46.2944 150 46.7792 150 47.3716C150 48.5296 150.363 49.3376 151.089 49.7952C151.816 50.226 152.797 50.4416 154.035 50.4416ZM153.631 32.2244C155.245 32.2244 156.604 32.4264 157.707 32.8303C158.81 33.2343 159.684 33.7998 160.33 34.5268C161.002 35.2539 161.473 36.1425 161.742 37.1928C162.038 38.2159 162.186 39.3469 162.186 40.5856V53.39C161.433 53.5516 160.29 53.7404 158.756 53.9556C157.25 54.198 155.541 54.3192 153.631 54.3192C152.367 54.3192 151.21 54.198 150.161 53.9556C149.112 53.7132 148.211 53.3228 147.458 52.7844C146.731 52.246 146.153 51.5456 145.722 50.684C145.319 49.8224 145.117 48.7584 145.117 47.4928C145.117 46.2812 145.346 45.258 145.803 44.4228C146.287 43.588 146.933 42.9152 147.74 42.4032C148.547 41.8648 149.475 41.4876 150.524 41.2724C151.6 41.03 152.716 40.9088 153.874 40.9088C154.411 40.9088 154.976 40.9492 155.568 41.03C156.16 41.0836 156.792 41.1916 157.465 41.3532V40.5452C157.465 39.9798 157.398 39.4414 157.263 38.9296C157.129 38.4179 156.886 37.9736 156.537 37.5967C156.214 37.1928 155.77 36.883 155.205 36.6676C154.667 36.4523 153.981 36.3445 153.147 36.3445C152.017 36.3445 150.982 36.4253 150.04 36.5868C149.098 36.7484 148.332 36.937 147.74 37.1524L147.135 33.1939C147.753 32.9786 148.655 32.7629 149.838 32.5476C151.022 32.3323 152.286 32.2244 153.631 32.2244ZM179.787 37.1524C179.383 37.0178 178.818 36.883 178.092 36.7484C177.392 36.5868 176.572 36.5061 175.63 36.5061C175.092 36.5061 174.514 36.5598 173.895 36.6676C173.304 36.7755 172.886 36.8696 172.644 36.9504V53.8748H167.762V33.7594C168.704 33.4092 169.874 33.086 171.272 32.79C172.698 32.4668 174.272 32.3052 175.994 32.3052C176.316 32.3052 176.693 32.3323 177.124 32.386C177.554 32.413 177.984 32.4668 178.415 32.5476C178.845 32.6013 179.262 32.6821 179.666 32.79C180.069 32.8707 180.392 32.9515 180.634 33.0323L179.787 37.1524ZM191.784 25.6C195.846 25.6 198.954 26.3406 201.106 27.8216C203.285 29.3027 204.374 31.6186 204.374 34.7692C204.374 36.4119 204.078 37.8257 203.486 39.0104C202.922 40.1684 202.088 41.124 200.984 41.8784C199.882 42.6052 198.536 43.1436 196.949 43.494C195.362 43.844 193.546 44.0192 191.502 44.0192H188.96V53.8748H183.875V26.2867C185.059 26.0174 186.364 25.8424 187.79 25.7616C189.242 25.6539 190.574 25.6 191.784 25.6ZM192.148 30.0028C190.856 30.0028 189.794 30.0432 188.96 30.124V39.6567H191.421C193.869 39.6567 195.752 39.3202 197.07 38.6469C198.389 37.9468 199.048 36.6406 199.048 34.7288C199.048 33.8131 198.873 33.0456 198.523 32.4264C198.173 31.8072 197.689 31.3224 197.07 30.9723C196.452 30.6222 195.712 30.3798 194.851 30.2452C194.017 30.0836 193.116 30.0028 192.148 30.0028ZM214.182 50.4416C215.688 50.4416 216.832 50.3608 217.612 50.1992V44.7864C217.342 44.7056 216.953 44.6248 216.442 44.544C215.93 44.4632 215.365 44.4228 214.747 44.4228C214.209 44.4228 213.657 44.4632 213.092 44.544C212.554 44.6248 212.056 44.7732 211.599 44.9884C211.169 45.204 210.819 45.5136 210.55 45.9176C210.281 46.2944 210.146 46.7792 210.146 47.3716C210.146 48.5296 210.51 49.3376 211.236 49.7952C211.962 50.226 212.944 50.4416 214.182 50.4416ZM213.778 32.2244C215.392 32.2244 216.751 32.4264 217.854 32.8303C218.956 33.2343 219.831 33.7998 220.477 34.5268C221.149 35.2539 221.62 36.1425 221.889 37.1928C222.185 38.2159 222.333 39.3469 222.333 40.5856V53.39C221.58 53.5516 220.436 53.7404 218.903 53.9556C217.396 54.198 215.688 54.3192 213.778 54.3192C212.514 54.3192 211.357 54.198 210.308 53.9556C209.259 53.7132 208.358 53.3228 207.604 52.7844C206.878 52.246 206.3 51.5456 205.869 50.684C205.466 49.8224 205.264 48.7584 205.264 47.4928C205.264 46.2812 205.493 45.258 205.95 44.4228C206.434 43.588 207.08 42.9152 207.887 42.4032C208.694 41.8648 209.622 41.4876 210.671 41.2724C211.747 41.03 212.863 40.9088 214.02 40.9088C214.558 40.9088 215.123 40.9492 215.715 41.03C216.307 41.0836 216.939 41.1916 217.612 41.3532V40.5452C217.612 39.9798 217.544 39.4414 217.41 38.9296C217.276 38.4179 217.033 37.9736 216.684 37.5967C216.361 37.1928 215.917 36.883 215.352 36.6676C214.814 36.4523 214.128 36.3445 213.294 36.3445C212.164 36.3445 211.128 36.4253 210.187 36.5868C209.245 36.7484 208.479 36.937 207.887 37.1524L207.282 33.1939C207.9 32.9786 208.802 32.7629 209.985 32.5476C211.168 32.3323 212.433 32.2244 213.778 32.2244ZM232.388 50.3608C233.679 50.3608 234.62 50.2124 235.212 49.9164C235.804 49.5932 236.1 49.0548 236.1 48.3008C236.1 47.6008 235.777 47.0216 235.132 46.564C234.513 46.106 233.477 45.6076 232.024 45.0692C231.137 44.746 230.316 44.4096 229.563 44.0596C228.837 43.6824 228.204 43.2516 227.666 42.7668C227.128 42.282 226.698 41.7032 226.375 41.03C226.079 40.33 225.931 39.4818 225.931 38.4853C225.931 36.5465 226.644 35.0249 228.07 33.9209C229.496 32.79 231.432 32.2244 233.881 32.2244C235.118 32.2244 236.302 32.3456 237.432 32.588C238.562 32.8033 239.409 33.019 239.974 33.2343L239.086 37.1928C238.548 36.9504 237.862 36.7351 237.028 36.5465C236.194 36.3312 235.226 36.2233 234.123 36.2233C233.127 36.2233 232.32 36.3982 231.702 36.7484C231.083 37.0716 230.774 37.5833 230.774 38.2834C230.774 38.6335 230.827 38.943 230.935 39.2124C231.069 39.4818 231.285 39.7375 231.581 39.9798C231.876 40.1952 232.266 40.424 232.751 40.6664C233.235 40.8816 233.827 41.1108 234.526 41.3532C235.683 41.784 236.665 42.2148 237.472 42.6456C238.279 43.0496 238.938 43.5212 239.449 44.0596C239.987 44.5712 240.377 45.1636 240.62 45.8368C240.862 46.51 240.983 47.318 240.983 48.2604C240.983 50.28 240.229 51.8148 238.723 52.8652C237.243 53.8884 235.118 54.4 232.347 54.4C230.491 54.4 228.998 54.2384 227.868 53.9152C226.738 53.6192 225.945 53.3768 225.488 53.1884L226.335 49.1084C227.061 49.4048 227.922 49.6876 228.917 49.9568C229.94 50.226 231.096 50.3608 232.388 50.3608ZM249.619 50.3608C250.911 50.3608 251.852 50.2124 252.444 49.9164C253.036 49.5932 253.332 49.0548 253.332 48.3008C253.332 47.6008 253.009 47.0216 252.363 46.564C251.745 46.106 250.709 45.6076 249.256 45.0692C248.368 44.746 247.548 44.4096 246.795 44.0596C246.068 43.6824 245.436 43.2516 244.898 42.7668C244.36 42.282 243.93 41.7032 243.607 41.03C243.311 40.33 243.163 39.4818 243.163 38.4853C243.163 36.5465 243.876 35.0249 245.302 33.9209C246.727 32.79 248.664 32.2244 251.112 32.2244C252.35 32.2244 253.534 32.3456 254.663 32.588C255.793 32.8033 256.641 33.019 257.206 33.2343L256.318 37.1928C255.78 36.9504 255.094 36.7351 254.26 36.5465C253.426 36.3312 252.457 36.2233 251.354 36.2233C250.359 36.2233 249.552 36.3982 248.933 36.7484C248.315 37.0716 248.005 37.5833 248.005 38.2834C248.005 38.6335 248.059 38.943 248.167 39.2124C248.301 39.4818 248.516 39.7375 248.812 39.9798C249.108 40.1952 249.498 40.424 249.982 40.6664C250.467 40.8816 251.059 41.1108 251.758 41.3532C252.915 41.784 253.897 42.2148 254.704 42.6456C255.511 43.0496 256.17 43.5212 256.681 44.0596C257.219 44.5712 257.609 45.1636 257.851 45.8368C258.093 46.51 258.214 47.318 258.214 48.2604C258.214 50.28 257.461 51.8148 255.955 52.8652C254.475 53.8884 252.35 54.4 249.579 54.4C247.723 54.4 246.23 54.2384 245.1 53.9152C243.97 53.6192 243.176 53.3768 242.719 53.1884L243.566 49.1084C244.293 49.4048 245.154 49.6876 246.149 49.9568C247.171 50.226 248.328 50.3608 249.619 50.3608Z" fill="#232428"/>
</svg>
