<svg width="448" height="80" viewBox="0 0 448 80" fill="none" xmlns="http://www.w3.org/2000/svg">
<path d="M25.7607 49.2054L11.424 20.86V49.2054H5.93042V10.5305H11.9331L26.5648 39.658L41.223 10.5305H47.1989V49.2054H41.7322V20.86L27.3954 49.2054H25.7607ZM57.1141 10.5305H85.1176V16.0593H62.6077V27.1171H81.8215V32.6458H62.6077V43.6765H85.1176V49.2054H57.1141V10.5305ZM90.0484 10.5305H120.786V16.0593H108.164V49.2054H102.67V16.0593H90.0484V10.5305ZM139.999 10.5305L154.818 49.2054H149.326L145.922 40.3052H128.584L125.18 49.2054H119.687L134.506 10.5305H139.999ZM130.674 34.7765H143.804L137.266 17.7315L130.674 34.7765ZM166.905 32.6458C166.154 32.6458 165.439 32.5022 164.761 32.2144C164.099 31.9087 163.519 31.5132 163.018 31.0277C162.519 30.5242 162.125 29.9399 161.84 29.2746C161.554 28.5913 161.411 27.8722 161.411 27.1171V16.0593C161.411 15.3042 161.554 14.594 161.84 13.9288C162.125 13.2455 162.519 12.6611 163.018 12.1757C163.519 11.6722 164.099 11.2767 164.761 10.989C165.439 10.6834 166.154 10.5305 166.905 10.5305H185.555C186.305 10.5305 187.012 10.6834 187.673 10.989C188.351 11.2767 188.941 11.6722 189.441 12.1757C189.941 12.6611 190.335 13.2455 190.621 13.9288C190.906 14.594 191.049 15.3042 191.049 16.0593V21.0487H185.555V16.0593H166.905V27.1171H185.555C186.305 27.1171 187.012 27.261 187.673 27.5485C188.351 27.8363 188.941 28.2317 189.441 28.7352C189.941 29.2387 190.335 29.8321 190.621 30.5152C190.906 31.1805 191.049 31.8907 191.049 32.6458V43.6765C191.049 44.4318 190.906 45.1511 190.621 45.8342C190.335 46.4995 189.941 47.0836 189.441 47.5874C188.941 48.0907 188.351 48.4862 187.673 48.774C187.012 49.0616 186.305 49.2054 185.555 49.2054H166.369C165.618 49.2054 164.904 49.0616 164.225 48.774C163.564 48.4862 162.983 48.0907 162.482 47.5874C161.982 47.0836 161.589 46.4995 161.303 45.8342C161.018 45.1511 160.875 44.4318 160.875 43.6765V38.714H166.369V43.6765H185.555V32.6458H166.905ZM200.965 16.0593C200.965 15.3042 201.107 14.594 201.393 13.9288C201.679 13.2455 202.071 12.6611 202.572 12.1757C203.072 11.6722 203.653 11.2767 204.314 10.989C204.993 10.6834 205.708 10.5305 206.456 10.5305H227.306C228.056 10.5305 228.762 10.6834 229.422 10.989C230.101 11.2767 230.692 11.6722 231.191 12.1757C231.692 12.6611 232.085 13.2455 232.371 13.9288C232.657 14.594 232.798 15.3042 232.798 16.0593V21.0487H227.306V16.0593H206.456V43.6765H227.306V38.714H232.798V43.6765C232.798 44.4318 232.657 45.1511 232.371 45.8342C232.085 46.4995 231.692 47.0836 231.191 47.5874C230.692 48.0907 230.101 48.4862 229.422 48.774C228.762 49.0616 228.056 49.2054 227.306 49.2054H206.456C205.708 49.2054 204.993 49.0616 204.314 48.774C203.653 48.4862 203.072 48.0907 202.572 47.5874C202.071 47.0836 201.679 46.4995 201.393 45.8342C201.107 45.1511 200.965 44.4318 200.965 43.6765V16.0593ZM258.607 10.5305L273.426 49.2054H267.931L264.529 40.3052H247.19L243.788 49.2054H238.293L253.112 10.5305H258.607ZM249.28 34.7765H262.412L255.873 17.7315L249.28 34.7765ZM285.511 49.2054H280.017V10.5305H285.511L308.61 40.5212V10.5305H314.105V49.2054H308.61L285.511 19.2148V49.2054Z" fill="#1E222B"/>
<path d="M208.683 70.4489C208.683 70.6946 208.634 70.9254 208.54 71.1411C208.45 71.357 208.326 71.5457 208.164 71.7076C208.009 71.8634 207.825 71.9892 207.61 72.0851C207.397 72.175 207.166 72.22 206.923 72.22H202.018C201.78 72.22 201.554 72.175 201.34 72.0851C201.125 71.9892 200.937 71.8634 200.777 71.7076C200.622 71.5457 200.497 71.357 200.401 71.1411C200.312 70.9254 200.267 70.6946 200.267 70.4489V58.9597H202.018V64.3358C202.03 64.102 202.084 63.8832 202.179 63.6794C202.274 63.4696 202.4 63.29 202.554 63.1401C202.715 62.9843 202.899 62.8645 203.108 62.7805C203.317 62.6906 203.54 62.6457 203.779 62.6457H206.923C207.166 62.6457 207.397 62.6937 207.61 62.7895C207.825 62.8795 208.009 63.0053 208.164 63.167C208.326 63.3228 208.45 63.5086 208.54 63.7245C208.634 63.9403 208.683 64.171 208.683 64.4167V70.4489ZM202.018 64.4167V70.4489H206.923V64.4167H202.018ZM212.256 76.0857L214.247 71.357L210.514 62.6457H212.362L215.141 69.2352L217.918 62.6457H219.767L214.006 76.0857H212.256ZM229.791 72.22L225.983 62.6457H227.815L230.701 70.0984L233.596 62.6457H235.426L231.621 72.22H229.791ZM237.267 62.6457H239.017V70.4489H243.921V62.6457H245.681V72.22H243.921V70.6019C243.902 70.8235 243.843 71.0333 243.743 71.231C243.64 71.4289 243.51 71.6025 243.35 71.7526C243.195 71.8965 243.015 72.0102 242.812 72.0941C242.61 72.1779 242.397 72.22 242.17 72.22H239.017C238.78 72.22 238.553 72.175 238.338 72.0851C238.123 71.9892 237.937 71.8634 237.776 71.7076C237.62 71.5457 237.496 71.357 237.4 71.1411C237.312 70.9254 237.267 70.6946 237.267 70.4489V62.6457ZM250.362 58.9597V72.22H248.61V58.9597H250.362ZM261.707 72.22H259.946V64.4167H255.043V72.22H253.29V62.6457H255.043V64.3358C255.055 64.102 255.108 63.8832 255.202 63.6794C255.298 63.4696 255.423 63.29 255.578 63.1401C255.738 62.9843 255.924 62.8645 256.133 62.7805C256.341 62.6906 256.564 62.6457 256.801 62.6457H259.946C260.19 62.6457 260.421 62.6937 260.633 62.7895C260.848 62.8795 261.032 63.0053 261.188 63.167C261.349 63.3228 261.474 63.5086 261.564 63.7245C261.658 63.9403 261.707 64.171 261.707 64.4167V72.22ZM270.379 70.4489V68.2284H266.208C265.964 68.2284 265.733 68.1835 265.521 68.0935C265.306 67.9977 265.118 67.8719 264.956 67.7159C264.803 67.5541 264.678 67.3653 264.582 67.1497C264.492 66.9338 264.447 66.7031 264.447 66.4574V64.4167C264.447 64.171 264.492 63.9403 264.582 63.7245C264.678 63.5086 264.803 63.3228 264.956 63.167C265.118 63.0053 265.306 62.8795 265.521 62.7895C265.733 62.6937 265.964 62.6457 266.208 62.6457H271.772V64.4167H266.208V66.4574H270.379C270.623 66.4574 270.85 66.5054 271.058 66.6013C271.273 66.6912 271.461 66.817 271.62 66.9788C271.782 67.1346 271.907 67.3205 271.997 67.5363C272.091 67.752 272.14 67.9827 272.14 68.2284V70.4489C272.14 70.6946 272.091 70.9254 271.997 71.1411C271.907 71.357 271.782 71.5457 271.62 71.7076C271.461 71.8634 271.273 71.9892 271.058 72.0851C270.85 72.175 270.623 72.22 270.379 72.22H264.447V70.4489H270.379ZM283.305 70.4489C283.305 70.6946 283.258 70.9254 283.162 71.1411C283.072 71.357 282.947 71.5457 282.785 71.7076C282.632 71.8634 282.446 71.9892 282.233 72.0851C282.019 72.175 281.79 72.22 281.544 72.22H276.641V76.0857H274.89V62.6457H276.641V64.2638C276.659 64.0361 276.718 63.8263 276.819 63.6346C276.921 63.4367 277.05 63.266 277.203 63.1221C277.358 62.9722 277.536 62.8554 277.739 62.7715C277.947 62.6875 278.168 62.6457 278.401 62.6457H281.544C281.79 62.6457 282.019 62.6937 282.233 62.7895C282.446 62.8795 282.632 63.0053 282.785 63.167C282.947 63.3228 283.072 63.5086 283.162 63.7245C283.258 63.9403 283.305 64.171 283.305 64.4167V70.4489ZM281.544 70.4489V64.4167H276.641V70.4489H281.544ZM286.235 68.0396C286.235 67.7939 286.28 67.566 286.368 67.3562C286.464 67.1405 286.589 66.9519 286.744 66.7899C286.906 66.6282 287.092 66.5023 287.307 66.4124C287.521 66.3166 287.748 66.2686 287.986 66.2686H292.523V64.4167H286.779V62.6457H292.523C292.766 62.6457 292.998 62.6937 293.21 62.7895C293.425 62.8795 293.609 63.0053 293.764 63.167C293.926 63.3228 294.051 63.5086 294.141 63.7245C294.235 63.9403 294.284 64.171 294.284 64.4167V72.22H292.523V70.6019C292.505 70.8235 292.445 71.0333 292.343 71.231C292.243 71.4289 292.112 71.6025 291.953 71.7526C291.797 71.8965 291.617 72.0102 291.415 72.0941C291.212 72.1779 290.998 72.22 290.773 72.22H287.986C287.748 72.22 287.521 72.175 287.307 72.0851C287.092 71.9892 286.906 71.8634 286.744 71.7076C286.589 71.5457 286.464 71.357 286.368 71.1411C286.28 70.9254 286.235 70.6946 286.235 70.4489V68.0396ZM287.986 70.4489H292.523V68.0396H287.986V70.4489ZM298.973 64.4167V70.4489H303.51V68.8309H305.269V70.4489C305.269 70.6946 305.222 70.9254 305.128 71.1411C305.038 71.357 304.913 71.5457 304.751 71.7076C304.598 71.8634 304.412 71.9892 304.197 72.0851C303.983 72.175 303.756 72.22 303.51 72.22H298.973C298.733 72.22 298.508 72.175 298.294 72.0851C298.079 71.9892 297.891 71.8634 297.729 71.7076C297.576 71.5457 297.451 71.357 297.355 71.1411C297.265 70.9254 297.222 70.6946 297.222 70.4489V64.4167C297.222 64.171 297.265 63.9403 297.355 63.7245C297.451 63.5086 297.576 63.3228 297.729 63.167C297.891 63.0053 298.079 62.8795 298.294 62.7895C298.508 62.6937 298.733 62.6457 298.973 62.6457H303.51C303.756 62.6457 303.983 62.6937 304.197 62.7895C304.412 62.8795 304.598 63.0053 304.751 63.167C304.913 63.3228 305.038 63.5086 305.128 63.7245C305.222 63.9403 305.269 64.171 305.269 64.4167V66.0348H303.51V64.4167H298.973ZM316.258 68.3364H309.96V70.4489H316.258V72.22H309.96C309.721 72.22 309.494 72.175 309.281 72.0851C309.066 71.9892 308.878 71.8634 308.719 71.7076C308.563 71.5457 308.438 71.357 308.342 71.1411C308.254 70.9254 308.209 70.6946 308.209 70.4489V64.4167C308.209 64.171 308.254 63.9403 308.342 63.7245C308.438 63.5086 308.563 63.3228 308.719 63.167C308.878 63.0053 309.066 62.8795 309.281 62.7895C309.494 62.6937 309.721 62.6457 309.96 62.6457H314.497C314.741 62.6457 314.972 62.6937 315.184 62.7895C315.399 62.8795 315.583 63.0053 315.739 63.167C315.9 63.3228 316.025 63.5086 316.115 63.7245C316.209 63.9403 316.258 64.171 316.258 64.4167V68.3364ZM309.96 64.4167V66.5652H314.497V64.4167H309.96Z" fill="#1E222B"/>
</svg>
