<svg width="448" height="80" viewBox="0 0 448 80" fill="none" xmlns="http://www.w3.org/2000/svg">
<g clip-path="url(#clip0_4118_5096)">
<g clip-path="url(#clip1_4118_5096)">
<path fill-rule="evenodd" clip-rule="evenodd" d="M3.36417 12H57.2175C58.7995 12 60.0828 13.2822 60.0828 14.8642V65.1347C60.0828 66.7167 58.7995 68 57.2175 68H3.36417C1.78217 68 0.5 66.7167 0.5 65.1347V14.8642C0.5 13.2822 1.78217 12 3.36417 12Z" fill="#EE0202"/>
<path fill-rule="evenodd" clip-rule="evenodd" d="M34.9341 30.8475L50.2641 21.2202L50.2408 24.4997L40.1047 33.5297L34.9341 30.8475Z" fill="white"/>
<path d="M29.7084 48.8824C34.4529 48.8824 38.2991 45.0294 38.2991 40.2765C38.2991 35.5236 34.4529 31.6706 29.7084 31.6706C24.9639 31.6706 21.1177 35.5236 21.1177 40.2765C21.1177 45.0294 24.9639 48.8824 29.7084 48.8824Z" fill="#EE0202"/>
<path fill-rule="evenodd" clip-rule="evenodd" d="M34.9341 49.7218L50.2641 59.3317L50.2408 56.058L40.1047 47.0455L34.9341 49.7218Z" fill="white"/>
<path fill-rule="evenodd" clip-rule="evenodd" d="M24.4996 49.7218L9.1521 59.3317L9.17427 56.058L19.3231 47.0455L24.4996 49.7218Z" fill="white"/>
<path fill-rule="evenodd" clip-rule="evenodd" d="M24.1075 31.0563L9.15088 21.2202L9.25705 24.691L19.2145 34.0138L24.1075 31.0563Z" fill="white"/>
<path d="M29.9012 50.9395C35.7198 50.9395 40.4367 46.2166 40.4367 40.3907C40.4367 34.5647 35.7198 29.8418 29.9012 29.8418C24.0826 29.8418 19.3657 34.5647 19.3657 40.3907C19.3657 46.2166 24.0826 50.9395 29.9012 50.9395Z" stroke="white" stroke-width="3.90698"/>
<path fill-rule="evenodd" clip-rule="evenodd" d="M216.959 47.0408C217.487 45.7505 217.751 44.3365 217.751 42.7988V37.977C217.751 36.451 217.487 35.0397 216.959 33.7432C216.512 32.6457 215.918 31.6786 215.176 30.8417C215.042 30.69 214.903 30.5426 214.758 30.3995C214.584 30.2261 214.404 30.0596 214.218 29.9002C213.402 29.2017 212.47 28.6378 211.424 28.2085C210.139 27.6804 208.74 27.4163 207.225 27.4163H201.03C199.517 27.4163 198.114 27.6804 196.823 28.2085C195.744 28.6495 194.789 29.2324 193.956 29.9573C193.792 30.0989 193.634 30.2463 193.48 30.3995C193.35 30.5278 193.225 30.6593 193.104 30.7938C192.342 31.6416 191.732 32.6247 191.271 33.7432C190.737 35.0397 190.47 36.451 190.47 37.977V42.7988C190.47 44.3365 190.737 45.7505 191.271 47.0408C191.713 48.1095 192.293 49.0576 193.013 49.8852C193.162 50.0571 193.318 50.2239 193.48 50.3857C193.671 50.5762 193.869 50.7586 194.075 50.9328C194.88 51.6126 195.796 52.1606 196.823 52.5767C198.114 53.0986 199.517 53.3595 201.03 53.3595H207.225C208.74 53.3595 210.139 53.0986 211.424 52.5767C212.419 52.1722 213.31 51.6426 214.098 50.9877C214.328 50.7979 214.548 50.5972 214.758 50.3857C214.936 50.2091 215.105 50.0259 215.267 49.8362C215.966 49.0203 216.53 48.0885 216.959 47.0408ZM105.102 29.675C105.072 29.4938 105.019 29.3157 104.945 29.1407C104.858 28.9524 104.752 28.7809 104.625 28.6262C104.476 28.4426 104.298 28.2828 104.091 28.1467C103.871 28.0012 103.641 27.8978 103.4 27.8363C103.223 27.7912 103.04 27.7687 102.851 27.7687H82.1866V32.3443H97.6928L82.5564 49.1887C82.4351 49.324 82.3324 49.4694 82.2484 49.625C82.1287 49.8467 82.0466 50.0882 82.0023 50.3495C81.9657 50.5618 81.9607 50.7699 81.9871 50.9737C82.0151 51.1992 82.0816 51.4197 82.1866 51.6352C82.2729 51.8234 82.3795 51.9949 82.5063 52.1497C82.6556 52.3332 82.8337 52.4931 83.0406 52.6292C83.2599 52.7746 83.4902 52.8781 83.7313 52.9395C83.9086 52.9854 84.0918 53.0083 84.2808 53.0083H104.91V48.4315H89.4386L104.54 31.5872C104.66 31.4627 104.762 31.3278 104.846 31.1823C104.975 30.9576 105.061 30.7083 105.103 30.4345C105.144 30.1747 105.143 29.9216 105.102 29.675ZM113.354 53.0083H117.931V27.7687H113.354V53.0083ZM152.301 41.127C152.559 40.3057 152.688 39.3727 152.688 38.3282V36.2515C152.688 35.6884 152.624 35.0872 152.495 34.4478C152.365 33.8085 152.157 33.175 151.87 32.5473C151.583 31.9189 151.219 31.3173 150.778 30.7425C150.338 30.1677 149.804 29.6602 149.177 29.22C148.549 28.7798 147.824 28.4278 147.003 28.1642C146.182 27.9005 145.255 27.7687 144.223 27.7687H133.872C133.239 27.7687 132.547 27.883 131.797 28.1117C131.622 28.1646 131.449 28.2252 131.28 28.2937C130.723 28.5184 130.2 28.8245 129.711 29.2118C129.071 29.7158 128.537 30.3785 128.109 31.1998C127.68 32.0212 127.466 33.0187 127.466 34.1923V53.0083H132.043V34.1923C132.043 33.6308 132.182 33.1933 132.461 32.8798C132.478 32.8596 132.497 32.8394 132.517 32.8192C132.53 32.8067 132.543 32.7947 132.556 32.783C132.872 32.4906 133.323 32.3443 133.908 32.3443H144.223C144.821 32.3443 145.349 32.4412 145.806 32.6348C146.19 32.7974 146.527 33.0117 146.816 33.2777C146.872 33.3282 146.925 33.3807 146.977 33.4352C147.3 33.7758 147.555 34.1865 147.742 34.6672C147.93 35.1486 148.053 35.6767 148.113 36.2515V38.3282C148.113 38.9154 148.018 39.4408 147.829 39.9043C147.677 40.2831 147.472 40.6168 147.217 40.9053C147.16 40.9699 147.1 41.0321 147.038 41.092C146.698 41.4202 146.291 41.6812 145.815 41.8748C145.339 42.0685 144.809 42.1891 144.223 42.2365H133.872V46.8122H144.223C144.786 46.8122 145.387 46.7476 146.027 46.6185C146.666 46.4894 147.299 46.2841 147.927 46.0025C148.555 45.7209 149.156 45.3573 149.732 44.9117C150.307 44.4652 150.814 43.9282 151.254 43.3005C151.693 42.6728 152.042 41.9483 152.301 41.127ZM163.157 53.0083H184.032V48.4315H165.427V27.7687H160.851V50.7018C160.851 51.0192 160.906 51.3147 161.016 51.5885C161.02 51.5978 161.024 51.6076 161.028 51.6177C161.124 51.8487 161.25 52.0544 161.406 52.2348C161.44 52.2737 161.475 52.3114 161.512 52.348C161.548 52.3846 161.586 52.4196 161.625 52.453C161.805 52.6093 162.01 52.7357 162.242 52.8322C162.251 52.8361 162.261 52.8399 162.271 52.8438C162.544 52.9535 162.839 53.0083 163.157 53.0083ZM232.62 53.0083H249.13V48.4315H232.62C232.097 48.4315 231.679 48.3036 231.366 48.0477C231.328 48.0158 231.291 47.9823 231.256 47.9473C231.22 47.9123 231.187 47.8758 231.156 47.8377C230.9 47.5242 230.772 47.1062 230.772 46.5835V34.2273C230.772 33.6176 230.925 33.1544 231.229 32.8378C231.235 32.8316 231.241 32.8254 231.247 32.8192C231.266 32.7997 231.287 32.7807 231.308 32.762C231.621 32.4836 232.059 32.3443 232.62 32.3443H249.13V27.7687H232.62C231.834 27.7687 231.129 27.8682 230.507 28.0673C229.886 28.2664 229.337 28.5332 228.862 28.8677C228.387 29.2021 227.979 29.5867 227.638 30.0215C227.299 30.4555 227.023 30.9101 226.811 31.3853C226.6 31.8606 226.445 32.3416 226.346 32.8285C226.245 33.3154 226.195 33.77 226.195 34.1923V46.5835C226.195 47.3698 226.295 48.0768 226.495 48.7045C226.694 49.3322 226.961 49.8836 227.295 50.3588C227.63 50.8341 228.014 51.2389 228.448 51.5733C228.883 51.9078 229.338 52.1808 229.813 52.3923C230.288 52.6031 230.769 52.7583 231.256 52.8578C231.743 52.9582 232.198 53.0083 232.62 53.0083ZM257.75 53.0083H262.326V27.7687H257.75V53.0083ZM277.674 53.0083H284.169L271.197 40.3885L284.169 27.7687H277.674L267.377 38.082H264.155V42.6938H267.377L277.674 53.0083ZM212.744 35.5212C213.031 36.2546 213.175 37.0732 213.175 37.977V42.7988C213.175 43.7026 213.031 44.5212 212.744 45.2547C212.503 45.8683 212.179 46.4081 211.769 46.874C211.689 46.965 211.606 47.0529 211.521 47.1377C211.444 47.2139 211.365 47.2874 211.284 47.3582C210.807 47.7751 210.255 48.1064 209.629 48.3522C208.895 48.6399 208.082 48.7838 207.19 48.7838H201.03C200.138 48.7838 199.326 48.6399 198.593 48.3522C197.965 48.1064 197.413 47.7751 196.936 47.3582C196.856 47.2874 196.777 47.2139 196.701 47.1377C196.614 47.0529 196.531 46.965 196.451 46.874C196.043 46.4081 195.718 45.8683 195.477 45.2547C195.19 44.5212 195.046 43.7026 195.046 42.7988V37.977C195.046 37.0732 195.19 36.2546 195.477 35.5212C195.718 34.9075 196.043 34.3677 196.451 33.9018C196.531 33.8108 196.614 33.7229 196.701 33.6382C196.777 33.5619 196.856 33.4884 196.936 33.4177C197.413 33.0008 197.965 32.6694 198.593 32.4237C199.326 32.1359 200.138 31.992 201.03 31.992H207.225C208.106 31.992 208.913 32.1359 209.646 32.4237C210.289 32.6757 210.851 33.0179 211.332 33.4503C211.4 33.511 211.465 33.5736 211.529 33.6382C211.594 33.7019 211.656 33.7677 211.717 33.8353C212.149 34.316 212.492 34.8779 212.744 35.5212Z" fill="black"/>
</g>
</g>
<defs>
<clipPath id="clip0_4118_5096">
<rect width="447" height="80" fill="white" transform="translate(0.5)"/>
</clipPath>
<clipPath id="clip1_4118_5096">
<rect width="288.167" height="56" fill="white" transform="translate(0.5 12)"/>
</clipPath>
</defs>
</svg>
