<svg width="341" height="56" viewBox="0 0 341 56" fill="none" xmlns="http://www.w3.org/2000/svg">
<path d="M110.417 28.2775C110.417 26.7726 110.683 25.3026 111.216 23.8671C111.771 22.4086 112.57 21.089 113.612 19.9083C114.654 18.7045 115.927 17.7552 117.432 17.0607C118.937 16.343 120.65 15.9841 122.571 15.9841C124.84 15.9841 126.797 16.4819 128.44 17.4774C130.107 18.4728 131.346 19.7694 132.156 21.3668L128.475 23.9019C128.058 22.9759 127.514 22.2466 126.843 21.7141C126.171 21.1584 125.454 20.7764 124.69 20.5681C123.926 20.3366 123.173 20.2208 122.432 20.2208C121.229 20.2208 120.175 20.4639 119.272 20.9501C118.393 21.4363 117.652 22.073 117.05 22.8601C116.448 23.6471 115.996 24.527 115.695 25.4993C115.418 26.4717 115.279 27.444 115.279 28.4164C115.279 29.5045 115.452 30.5578 115.8 31.5765C116.147 32.572 116.633 33.4634 117.258 34.2505C117.906 35.0145 118.67 35.6279 119.55 36.091C120.453 36.5308 121.437 36.7508 122.502 36.7508C123.266 36.7508 124.041 36.6236 124.829 36.3688C125.616 36.1141 126.345 35.709 127.016 35.1534C127.688 34.5978 128.209 33.8801 128.579 33.0003L132.503 35.2576C132.017 36.4846 131.218 37.5264 130.107 38.383C129.019 39.2395 127.792 39.8879 126.426 40.3277C125.06 40.7675 123.706 40.9875 122.363 40.9875C120.604 40.9875 118.994 40.6286 117.536 39.911C116.077 39.1701 114.816 38.1977 113.751 36.9939C112.709 35.7668 111.887 34.401 111.285 32.8961C110.706 31.3682 110.417 29.8285 110.417 28.2775Z" fill="black"/>
<path d="M135.231 15.4287H139.884V34.9452C139.884 35.7787 140.023 36.3459 140.301 36.6469C140.579 36.9247 140.961 37.0636 141.447 37.0636C141.818 37.0636 142.2 37.0172 142.593 36.9247C142.987 36.8321 143.334 36.7163 143.635 36.5774L144.26 40.1195C143.635 40.4205 142.906 40.6521 142.072 40.8141C141.239 40.9761 140.486 41.0572 139.815 41.0572C138.357 41.0572 137.222 40.6752 136.412 39.9112C135.625 39.1241 135.231 38.0128 135.231 36.5774V15.4287Z" fill="black"/>
<path d="M154.691 41.1265C153.21 41.1265 151.878 40.8834 150.698 40.3972C149.517 39.888 148.51 39.1934 147.676 38.3136C146.866 37.4338 146.241 36.4267 145.801 35.2924C145.361 34.158 145.141 32.9657 145.141 31.7155C145.141 30.4422 145.361 29.2383 145.801 28.1039C146.241 26.9695 146.866 25.9625 147.676 25.0827C148.51 24.2029 149.517 23.5199 150.698 23.0338C151.878 22.5245 153.21 22.2698 154.691 22.2698C156.173 22.2698 157.493 22.5245 158.65 23.0338C159.831 23.5199 160.838 24.2029 161.671 25.0827C162.505 25.9625 163.13 26.9695 163.547 28.1039C163.986 29.2383 164.206 30.4422 164.206 31.7155C164.206 32.9657 163.986 34.158 163.547 35.2924C163.13 36.4267 162.505 37.4338 161.671 38.3136C160.861 39.1934 159.866 39.888 158.685 40.3972C157.504 40.8834 156.173 41.1265 154.691 41.1265ZM149.934 31.7155C149.934 32.7804 150.142 33.7297 150.559 34.5631C150.976 35.3735 151.543 36.01 152.26 36.4731C152.978 36.9362 153.788 37.1676 154.691 37.1676C155.571 37.1676 156.37 36.9362 157.087 36.4731C157.805 35.9869 158.372 35.3387 158.789 34.5284C159.229 33.6949 159.449 32.7457 159.449 31.6808C159.449 30.639 159.229 29.7013 158.789 28.8679C158.372 28.0344 157.805 27.3863 157.087 26.9232C156.37 26.4601 155.571 26.2286 154.691 26.2286C153.788 26.2286 152.978 26.4717 152.26 26.9579C151.543 27.421 150.976 28.0692 150.559 28.9026C150.142 29.713 149.934 30.6506 149.934 31.7155Z" fill="black"/>
<path d="M167.174 33.9729V22.5825H171.827V32.9658C171.827 34.3549 172.081 35.4083 172.592 36.126C173.101 36.8205 173.852 37.1678 174.849 37.1678C175.45 37.1678 176.04 37.0519 176.62 36.8205C177.221 36.5658 177.766 36.1954 178.252 35.7092C178.761 35.2231 179.19 34.6096 179.537 33.8687V22.5825H184.191V35.5703C184.191 36.0565 184.27 36.4038 184.434 36.6121C184.618 36.8205 184.908 36.9478 185.302 36.9941V40.7794C184.838 40.8488 184.444 40.8952 184.121 40.9183C183.819 40.9646 183.541 40.9877 183.288 40.9877C182.454 40.9877 181.77 40.8025 181.239 40.4321C180.728 40.0385 180.428 39.5061 180.336 38.8347L180.232 37.3761C179.421 38.6032 178.379 39.5408 177.106 40.189C175.832 40.8141 174.432 41.1266 172.904 41.1266C171.028 41.1266 169.605 40.5246 168.632 39.3208C167.66 38.0938 167.174 36.3112 167.174 33.9729Z" fill="black"/>
<path d="M187.703 31.6809C187.703 29.9215 188.05 28.3355 188.745 26.9233C189.44 25.4879 190.4 24.3535 191.627 23.5201C192.855 22.6866 194.254 22.2699 195.829 22.2699C197.172 22.2699 198.377 22.6056 199.441 23.277C200.53 23.9252 201.373 24.7586 201.976 25.7773V15.4287H206.629V35.5703C206.629 36.0565 206.711 36.4038 206.872 36.6121C207.034 36.8205 207.312 36.9478 207.706 36.9941V40.7794C206.895 40.9414 206.235 41.0224 205.726 41.0224C204.893 41.0224 204.199 40.8141 203.643 40.3974C203.11 39.9806 202.809 39.4366 202.74 38.7652L202.671 37.6192C201.999 38.7536 201.085 39.6217 199.927 40.2237C198.793 40.8257 197.6 41.1266 196.35 41.1266C195.1 41.1266 193.942 40.8835 192.878 40.3974C191.836 39.9112 190.921 39.2397 190.134 38.3832C189.37 37.5267 188.768 36.531 188.328 35.3967C187.912 34.2391 187.703 33.0005 187.703 31.6809ZM201.976 34.1118V29.7709C201.745 29.0995 201.373 28.4977 200.865 27.9651C200.356 27.4326 199.788 27.0159 199.163 26.715C198.538 26.3908 197.913 26.2288 197.288 26.2288C196.571 26.2288 195.921 26.3793 195.343 26.6802C194.765 26.9811 194.254 27.3864 193.815 27.8957C193.398 28.4049 193.074 28.9953 192.843 29.6667C192.634 30.3382 192.53 31.0442 192.53 31.7851C192.53 32.526 192.647 33.232 192.878 33.9034C193.133 34.5516 193.49 35.1189 193.954 35.605C194.418 36.0912 194.949 36.4732 195.552 36.751C196.177 37.0289 196.849 37.1678 197.566 37.1678C198.005 37.1678 198.446 37.0983 198.885 36.9594C199.349 36.7974 199.776 36.589 200.17 36.3343C200.587 36.0565 200.946 35.7323 201.247 35.362C201.571 34.9683 201.815 34.5516 201.976 34.1118Z" fill="black"/>
<path d="M225.608 16.1234H230.469L239.533 40.7795H234.602L232.31 34.6328H223.698L221.44 40.7795H216.509L225.608 16.1234ZM231.442 31.2643L228.038 21.0893L224.496 31.2643H231.442Z" fill="black"/>
<path d="M240.167 31.6809C240.167 29.9215 240.514 28.3355 241.209 26.9233C241.903 25.4879 242.863 24.3535 244.091 23.5201C245.317 22.6866 246.718 22.2699 248.293 22.2699C249.635 22.2699 250.838 22.6056 251.905 23.277C252.992 23.9252 253.837 24.7586 254.44 25.7773V15.4287H259.093V35.5703C259.093 36.0565 259.173 36.4038 259.336 36.6121C259.498 36.8205 259.775 36.9478 260.17 36.9941V40.7794C259.359 40.9414 258.699 41.0224 258.19 41.0224C257.357 41.0224 256.662 40.8141 256.107 40.3974C255.573 39.9806 255.273 39.4366 255.204 38.7652L255.134 37.6192C254.462 38.7536 253.547 39.6217 252.391 40.2237C251.255 40.8257 250.064 41.1266 248.814 41.1266C247.564 41.1266 246.406 40.8835 245.341 40.3974C244.299 39.9112 243.384 39.2397 242.598 38.3832C241.834 37.5267 241.231 36.531 240.792 35.3967C240.375 34.2391 240.167 33.0005 240.167 31.6809ZM254.44 34.1118V29.7709C254.207 29.0995 253.837 28.4977 253.328 27.9651C252.818 27.4326 252.252 27.0159 251.627 26.715C251.002 26.3908 250.377 26.2288 249.752 26.2288C249.033 26.2288 248.385 26.3793 247.807 26.6802C247.227 26.9811 246.718 27.3864 246.279 27.8957C245.862 28.4049 245.537 28.9953 245.306 29.6667C245.098 30.3382 244.994 31.0442 244.994 31.7851C244.994 32.526 245.109 33.232 245.341 33.9034C245.595 34.5516 245.954 35.1189 246.418 35.605C246.88 36.0912 247.413 36.4732 248.015 36.751C248.64 37.0289 249.31 37.1678 250.029 37.1678C250.469 37.1678 250.908 37.0983 251.349 36.9594C251.811 36.7974 252.24 36.589 252.634 36.3343C253.051 36.0565 253.408 35.7323 253.71 35.362C254.033 34.9683 254.276 34.5516 254.44 34.1118Z" fill="black"/>
<path d="M268.488 40.7794L261.786 22.5825H266.613L271.197 36.5427L275.816 22.5825H280.226L273.559 40.7794H268.488Z" fill="black"/>
<path d="M282.685 40.7794V22.5825H287.338V40.7794H282.685ZM282.685 20.0474V15.4287H287.338V20.0474H282.685Z" fill="black"/>
<path d="M298.239 41.1268C296.688 41.1268 295.206 40.8721 293.794 40.3628C292.382 39.8535 291.167 39.101 290.148 38.1056L291.814 35.0843C292.903 35.9641 293.967 36.6123 295.009 37.029C296.074 37.4457 297.093 37.6541 298.065 37.6541C298.968 37.6541 299.685 37.4921 300.218 37.1679C300.774 36.8438 301.052 36.3576 301.052 35.7094C301.052 35.2696 300.901 34.9338 300.6 34.7023C300.3 34.4476 299.859 34.2278 299.281 34.0425C298.725 33.8572 298.043 33.6489 297.232 33.4174C295.89 32.9776 294.766 32.5492 293.863 32.1325C292.96 31.7158 292.278 31.1949 291.814 30.5698C291.375 29.9216 291.155 29.0996 291.155 28.1042C291.155 26.9004 291.455 25.87 292.058 25.0135C292.683 24.1337 293.539 23.4508 294.627 22.9646C295.739 22.4784 297.036 22.2354 298.517 22.2354C299.814 22.2354 301.04 22.4437 302.198 22.8604C303.356 23.2541 304.408 23.9022 305.358 24.8051L303.483 27.7569C302.557 27.0393 301.677 26.5184 300.843 26.1942C300.01 25.8469 299.164 25.6733 298.308 25.6733C297.822 25.6733 297.359 25.7311 296.919 25.847C296.503 25.9628 296.155 26.1595 295.877 26.4373C295.622 26.692 295.495 27.0624 295.495 27.5486C295.495 27.9884 295.612 28.3357 295.843 28.5904C296.098 28.8218 296.468 29.0302 296.954 29.2155C297.463 29.4007 298.077 29.6091 298.795 29.8405C300.253 30.2573 301.481 30.6856 302.476 31.1254C303.495 31.5653 304.259 32.1094 304.768 32.7576C305.276 33.3827 305.532 34.2509 305.532 35.3621C305.532 37.1679 304.872 38.5801 303.552 39.5988C302.232 40.6175 300.461 41.1268 298.239 41.1268Z" fill="black"/>
<path d="M317.101 41.1265C315.62 41.1265 314.288 40.8834 313.107 40.3972C311.927 39.888 310.92 39.1934 310.086 38.3136C309.275 37.4338 308.65 36.4267 308.211 35.2924C307.772 34.158 307.551 32.9657 307.551 31.7155C307.551 30.4422 307.772 29.2383 308.211 28.1039C308.65 26.9695 309.275 25.9625 310.086 25.0827C310.92 24.2029 311.927 23.5199 313.107 23.0338C314.288 22.5245 315.62 22.2698 317.101 22.2698C318.582 22.2698 319.902 22.5245 321.06 23.0338C322.241 23.5199 323.248 24.2029 324.081 25.0827C324.914 25.9625 325.54 26.9695 325.956 28.1039C326.396 29.2383 326.616 30.4422 326.616 31.7155C326.616 32.9657 326.396 34.158 325.956 35.2924C325.54 36.4267 324.914 37.4338 324.081 38.3136C323.27 39.1934 322.275 39.888 321.094 40.3972C319.914 40.8834 318.582 41.1265 317.101 41.1265ZM312.343 31.7155C312.343 32.7804 312.552 33.7297 312.968 34.5631C313.385 35.3735 313.953 36.01 314.67 36.4731C315.387 36.9362 316.198 37.1676 317.101 37.1676C317.981 37.1676 318.78 36.9362 319.497 36.4731C320.214 35.9869 320.782 35.3387 321.199 34.5284C321.638 33.6949 321.858 32.7457 321.858 31.6808C321.858 30.639 321.638 29.7013 321.199 28.8679C320.782 28.0344 320.214 27.3863 319.497 26.9232C318.78 26.4601 317.981 26.2286 317.101 26.2286C316.198 26.2286 315.387 26.4717 314.67 26.9579C313.953 27.421 313.385 28.0692 312.968 28.9026C312.552 29.713 312.343 30.6506 312.343 31.7155Z" fill="black"/>
<path d="M340.592 26.6106C339.179 26.6106 337.918 26.8885 336.807 27.4441C335.695 27.9766 334.897 28.7521 334.411 29.7708V40.7792H329.757V22.5823H334.029V26.4717C334.676 25.2216 335.497 24.2376 336.494 23.5199C337.489 22.8023 338.543 22.4087 339.654 22.3392C339.908 22.3392 340.106 22.3392 340.245 22.3392C340.384 22.3392 340.498 22.3509 340.592 22.374V26.6106Z" fill="black"/>
<path fill-rule="evenodd" clip-rule="evenodd" d="M70.2832 24.0235C75.8841 26.7622 79.738 32.5093 79.738 39.1455C79.738 48.4453 72.1701 56 62.843 56C62.6476 56 19.6151 56 19.6151 56C19.4921 56 18.1801 55.9925 18.0612 55.9771C8.02574 55.5664 0 47.2589 0 37.0778C0 28.1683 6.1474 20.694 14.407 18.6908C17.6582 7.89089 27.7615 0 39.7171 0C48.5948 0 56.4506 4.35 61.2212 11.0262L56.9541 15.327C53.3365 9.68523 46.9609 5.95318 39.7171 5.95318C29.9164 5.95318 21.7067 12.782 19.7184 21.902C19.4503 23.1317 18.4378 24.0599 17.1894 24.2204C10.8504 25.0347 5.9532 30.4887 5.9532 37.0778C5.9532 44.1144 11.54 49.8559 18.5019 50.0369C18.5595 50.0384 62.632 50.0468 62.843 50.0468C68.8795 50.0468 73.7847 45.1645 73.7847 39.1455C73.7847 34.1149 70.3582 29.8779 65.7051 28.6376L70.2832 24.0235Z" fill="#D0E2FC"/>
<path fill-rule="evenodd" clip-rule="evenodd" d="M36.7381 34.9433C36.7381 34.9433 61.7125 10.1549 67.0851 4.82242C67.6437 4.26795 68.5454 4.26962 69.1019 4.82612C70.0777 5.80208 71.5504 7.27482 72.5291 8.25342C72.7977 8.52203 72.9482 8.88649 72.9475 9.2664C72.9466 9.64649 72.7947 10.0104 72.5249 10.278C67.3754 15.3862 44.2902 38.2873 40.2405 42.337C39.3115 43.266 38.0518 43.7877 36.7381 43.7877C35.4246 43.7877 34.1647 43.266 33.2357 42.337C30.7797 39.881 24.6097 33.711 22.1754 31.2767C21.9074 31.0086 21.7567 30.6452 21.7567 30.2663C21.7567 29.8874 21.9074 29.524 22.1754 29.2559C23.1526 28.2787 24.6255 26.8059 25.6027 25.8285C25.8707 25.5606 26.2342 25.4101 26.6131 25.4101C26.992 25.4101 27.3554 25.5606 27.6235 25.8285C30.1862 28.3912 36.7381 34.9433 36.7381 34.9433Z" fill="#3A85F4"/>
</svg>
