<svg width="299" height="48" viewBox="0 0 299 48" fill="none" xmlns="http://www.w3.org/2000/svg">
<g clip-path="url(#clip0_2173_990)">
<path d="M7.39845 20.0522L20.2029 20.8073C26.2339 21.1631 32.1453 18.6113 36.1178 14.008C38.3496 11.4219 39.6104 8.0695 39.6104 4.63702L35.0276 0.0022583H9.84664L0 9.9608V29.6516L9.81411 39.5773L10.781 36.1491C12.2645 30.89 10.7246 25.2332 6.78861 21.4833C6.23128 20.9523 6.63405 20.0071 7.39845 20.0522Z" fill="#121212"/>
<path d="M17.0431 33.9264L16.8534 34.1463C14.6873 36.6562 13.4938 39.8751 13.4938 43.2065L18.2313 47.9979H43.2575L53.104 38.0393V18.3485L43.29 8.42288L42.3232 11.8509C40.8396 17.11 42.3797 22.7668 46.3156 26.5169C46.873 27.0478 46.47 27.9931 45.7057 27.948L32.9011 27.1927C26.8701 26.8371 21.0156 29.323 17.0431 33.9264Z" fill="#121212"/>
<path fill-rule="evenodd" clip-rule="evenodd" d="M72.0868 6.72144V41.2786H82.7881C83.1045 41.2786 83.6899 41.2706 84.5439 41.2546C85.4141 41.2385 86.2444 41.1746 87.0356 41.0626C89.7088 40.7266 91.9551 39.7668 93.7743 38.1828C95.6093 36.583 96.9935 34.559 97.9268 32.1113C98.8601 29.6474 99.3266 26.9438 99.3266 24C99.3266 21.0722 98.8601 18.3845 97.9268 15.9367C96.9935 13.4729 95.6093 11.441 93.7743 9.84117C91.9551 8.24131 89.7088 7.27339 87.0356 6.93741C86.2444 6.82543 85.4141 6.76144 84.5439 6.74544C83.6899 6.72943 83.1045 6.72144 82.7881 6.72144H72.0868ZM82.7881 36.503H77.1646V11.497H82.7881C83.3102 11.497 83.9428 11.513 84.6863 11.545C85.4457 11.561 86.1101 11.625 86.6796 11.737C88.388 12.057 89.78 12.8089 90.8557 13.9928C91.9473 15.1607 92.7539 16.6166 93.2759 18.3605C93.798 20.0883 94.059 21.9682 94.059 24C94.059 25.9678 93.8058 27.8237 93.2997 29.5675C92.7935 31.3114 91.9947 32.7833 90.9031 33.9833C89.8275 35.167 88.4195 35.927 86.6796 36.263C86.1101 36.359 85.4535 36.4229 84.71 36.455C83.9666 36.487 83.3259 36.503 82.7881 36.503Z" fill="#121212"/>
<path d="M104.852 41.2786V6.72144H126.682V11.4491H109.811V21.1442H123.834V25.8718H109.811V36.551H126.682V41.2786H104.852Z" fill="#121212"/>
<path d="M140.899 11.4491V41.2786H145.858V11.4491H157.224V6.72144H129.533V11.4491H140.899Z" fill="#121212"/>
<path fill-rule="evenodd" clip-rule="evenodd" d="M157.721 41.2786L168.826 6.72144H175.968L187.073 41.2786H181.924L179.395 33.4793H165.37L162.87 41.2786H157.721ZM172.342 11.7321L177.869 28.7755H166.878L172.342 11.7321Z" fill="#121212"/>
<path d="M191.33 6.72144V41.2786H196.289V26.5198H208.723V21.4802H196.289V11.737H211.57V6.72144H191.33Z" fill="#121212"/>
<path fill-rule="evenodd" clip-rule="evenodd" d="M213.01 41.2786L224.114 6.72144H231.257L242.361 41.2786H237.213L234.683 33.4793H220.659L218.159 41.2786H213.01ZM227.63 11.7321L233.158 28.7755H222.167L227.63 11.7321Z" fill="#121212"/>
<path d="M246.618 6.72144V41.2786H251.578V24.768L266.812 41.2786H273.17L256.941 23.592L272.054 6.72144H265.887L251.578 22.8481V6.72144H246.618Z" fill="#121212"/>
<path d="M276.511 6.72144V41.2786H298.34V36.551H281.471V25.8718H295.493V21.1442H281.471V11.4491H298.34V6.72144H276.511Z" fill="#121212"/>
</g>
<defs>
<clipPath id="clip0_2173_990">
<rect width="299" height="48" fill="white"/>
</clipPath>
</defs>
</svg>
