<svg width="322" height="29" viewBox="0 0 322 29" fill="none" xmlns="http://www.w3.org/2000/svg">
<path d="M21.9455 10.0304V6.69393H6.58575V11.1426H20.8514C21.1406 11.1426 21.402 11.0376 21.636 10.8278C21.8423 10.604 21.9455 10.3382 21.9455 10.0304ZM21.9455 22.306V18.9696C21.9455 18.6758 21.8423 18.41 21.636 18.1722C21.4156 17.9484 21.1542 17.8365 20.8514 17.8365H6.58575V22.306H21.9455ZM28.5313 0V10.0304C28.5313 11.6811 28.0703 13.171 27.1482 14.5001C28.0703 15.829 28.5313 17.3188 28.5313 18.9696V29H0V0H28.5313Z" fill="black"/>
<path d="M31.4218 0H59.9531V6.69393H38.0074V11.1426H59.9531V17.8365H38.0074V22.306H59.9531V29H31.4218V0Z" fill="black"/>
<path d="M62.8434 0H91.375V6.69393H69.4292V29H62.8434V0ZM84.7891 22.306V17.8574H69.4292V22.306H84.7891ZM62.8434 0H69.4292V11.1635H91.375V29H62.8434V0Z" fill="black"/>
<path d="M104.753 29V0H133.284V29H104.753ZM111.338 6.69393V22.306H126.698V6.69393H111.338Z" fill="black"/>
<path d="M136.174 0H164.705V6.69393H142.76V29H136.174V0ZM158.12 22.306V17.8574H142.76V22.306H158.12ZM136.174 0H142.76V11.1635H164.705V29H136.174V0Z" fill="black"/>
<path d="M167.596 29V0H196.127V29H167.596ZM174.181 6.69393V22.306H189.542V6.69393H174.181Z" fill="black"/>
<path d="M199.018 0H227.55V17.8365H205.604V29H199.018V0ZM205.604 6.69393V11.1426H220.964V6.69393H205.604Z" fill="black"/>
<path d="M230.439 29V0H258.97V29H230.439ZM237.025 6.69393V22.306H252.384V6.69393H237.025Z" fill="black"/>
<path d="M283.806 0H290.392V29H283.806V17.8365H268.447V29H261.862V0H268.447V11.1426H283.806V0Z" fill="black"/>
<path d="M293.284 0H321.814V29H315.229V17.8365H299.869V29H293.284V0ZM299.869 6.69393V11.1426H315.229V6.69393H299.869Z" fill="black"/>
</svg>
