<svg width="233" height="27" viewBox="0 0 233 27" fill="none" xmlns="http://www.w3.org/2000/svg">
<path fill-rule="evenodd" clip-rule="evenodd" d="M74.52 0.545898V25.9952H92.1891V22.7958H78.3011L78.3011 3.74524H92.0073V0.545898H74.52ZM79.4583 11.271L81.8519 14.3976H90.5894V11.271H79.4583Z" fill="white"/>
<path d="M210.643 12.6883C210.643 12.6883 210.716 13.5972 210.716 14.6152C210.716 21.7046 206.098 26.54 199.009 26.54C191.52 26.54 186.502 20.9775 186.502 13.27C186.502 5.56248 191.52 0 199.009 0C204.862 0 209.152 3.41747 210.279 8.6164H206.353C205.48 5.27164 202.681 3.12663 199.009 3.12663C193.883 3.12663 190.429 7.30758 190.429 13.27C190.429 19.2324 193.883 23.4133 199.009 23.4133C203.444 23.4133 206.535 20.3594 206.898 15.7786L196.646 15.7786V12.6883L210.643 12.6883Z" fill="white"/>
<path d="M181.049 25.9952L178.395 18.833L167.197 18.833L164.507 25.9952H160.762L170.578 0.545898L175.305 0.545898L185.048 25.9952H181.049ZM168.324 15.7791H177.232L172.796 3.85431L168.324 15.7791Z" fill="white"/>
<path d="M162.31 0.545898V3.74524L154.239 3.74524V25.9952L150.458 25.9952V3.74524L142.387 3.74524V0.545898L162.31 0.545898Z" fill="white"/>
<path d="M130.259 26.54C124.115 26.54 120.079 23.4133 119.425 18.1053H123.242C123.788 21.4865 126.296 23.4497 130.259 23.4497C133.931 23.4497 136.221 21.6319 136.221 19.0506C136.221 16.8692 134.949 15.8513 131.459 15.0878L126.405 13.9971C122.042 13.0518 120.079 10.9432 120.079 7.41665C120.079 3.05391 123.897 0 129.532 0C135.276 0 139.13 2.87213 139.821 7.78021L136.04 7.78021C135.385 4.76265 133.095 3.09027 129.532 3.09027C126.078 3.09027 123.897 4.72629 123.897 7.16215C123.897 9.05267 124.987 9.99793 128.041 10.6523L133.058 11.7067C137.785 12.7246 140.002 14.7969 140.002 18.7961C140.002 23.3043 136.076 26.54 130.259 26.54Z" fill="white"/>
<path d="M117.066 25.9952H112.74L105.868 16.0336H100.633V25.9952H96.8521V0.545898L107.032 0.545898C112.921 0.545898 116.23 3.1999 116.23 8.21704C116.23 12.4343 113.976 15.0156 109.868 15.7791L117.066 25.9952ZM100.633 3.63617V12.907L106.668 12.907C110.667 12.907 112.412 11.3073 112.412 8.21704C112.412 5.30855 110.667 3.63617 106.668 3.63617L100.633 3.63617Z" fill="white"/>
<path fill-rule="evenodd" clip-rule="evenodd" d="M215.331 0.545898V25.9952H233V22.7958H219.112V3.74524H232.818V0.545898H215.331ZM220.254 11.271L222.648 14.3976H231.4V11.271H220.254Z" fill="white"/>
<path d="M65.8688 12.4343C68.6683 13.4523 70.0498 15.5246 70.0498 18.6149C70.0498 23.4139 66.9959 25.9952 60.8881 25.9952H50.0176L50.0176 0.545898L60.9971 0.545898C66.5233 0.545898 69.25 2.76362 69.25 7.01729C69.25 9.67128 68.1593 11.5254 65.8688 12.4343ZM53.7986 3.56346V11.3437L60.6336 11.3437C63.942 11.3437 65.5416 9.99849 65.5416 7.45356C65.5416 4.87228 63.942 3.56346 60.6336 3.56346L53.7986 3.56346ZM60.8153 22.9776C64.4873 22.9776 66.3051 21.487 66.3051 18.6149C66.3051 15.8155 64.4873 14.2885 60.8153 14.2885L53.7986 14.2885V22.9776H60.8153Z" fill="white"/>
<path d="M46.9873 0.545898L37.8255 15.1974V25.9952L34.0445 25.9952V15.3428L24.8101 0.545898L29.1001 0.545898L36.0805 11.9981L43.1335 0.545898L46.9873 0.545898Z" fill="white"/>
<path d="M23.6315 16.7965C22.9044 22.6135 18.4689 26.54 12.2884 26.54C4.90807 26.54 0 20.9775 0 13.27C0 5.56248 4.90807 0 12.2884 0C18.1781 0 22.4681 3.5629 23.4133 8.97996H19.4869C18.7598 5.41706 15.9967 3.12663 12.2884 3.12663C7.27122 3.12663 3.92646 7.34393 3.92646 13.27C3.92646 19.196 7.27122 23.4133 12.2884 23.4133C16.2512 23.4133 19.087 20.7593 19.705 16.7965H23.6315Z" fill="white"/>
</svg>
