<svg width="448" height="80" viewBox="0 0 448 80" fill="none" xmlns="http://www.w3.org/2000/svg">
<g clip-path="url(#clip0_3342_8676)">
<path d="M76.877 44.6547V33.3357C76.877 26.8879 78.4629 23.6408 83.2677 23.6408C87.4157 23.6408 89.327 26.1921 89.327 31.4337V44.6547H93.8537V30.4594C93.8537 23.2229 90.1672 19.3264 83.6878 19.3264C80.7943 19.3264 78.6049 20.3007 76.6936 22.5736V19.7438H72.3562V44.6547H76.877ZM102.481 33.8461H123.553V33.1502C123.553 29.7171 122.902 27.0734 121.41 24.8005C118.937 21.0889 114.978 19.0015 110.594 19.0015C106.955 19.0015 103.783 20.3472 101.268 23.0839C98.9367 25.5887 97.7236 28.6504 97.7236 32.176C97.7236 35.5161 99.0728 38.9487 101.452 41.4076C103.925 44.0048 107.002 45.304 110.688 45.304C116.144 45.304 120.428 42.3353 122.766 36.7682H117.677C116.233 39.366 113.671 40.8507 110.688 40.8507C106.582 40.8507 103.227 38.0674 102.481 33.8461ZM118.612 29.8101H102.617C103.694 25.8207 106.813 23.3624 110.73 23.3624C114.6 23.3624 117.493 25.7282 118.612 29.8101ZM129.008 44.6547H133.488V23.8262H137.032V19.7438H133.488V11.6725H129.008V19.7438H125.47V23.8262H129.008V44.6547ZM138.849 32.2225C138.849 35.562 140.204 38.9952 142.583 41.4535C145.05 44.0513 148.174 45.3505 151.813 45.3505C155.447 45.3505 158.666 43.8659 161.186 41.1291C163.376 38.7168 164.684 35.3301 164.684 31.8976C164.684 28.5574 163.329 25.3103 160.855 22.8055C158.34 20.2542 155.216 18.955 151.577 18.955C148.174 18.955 144.908 20.4396 142.393 23.1304C140.062 25.5887 138.849 28.6969 138.849 32.2225ZM143.512 32.176C143.512 27.0268 147.245 23.4088 151.766 23.4088C156.382 23.4088 160.021 26.9803 160.021 32.1295C160.021 37.2321 156.382 40.8972 151.813 40.8972C147.103 40.8972 143.512 37.1862 143.512 32.176ZM172.938 41.6395C175.358 44.0978 178.252 45.304 181.654 45.304C185.43 45.304 188.37 44.0978 190.885 41.4535C193.217 39.0417 194.524 35.794 194.524 32.3149C194.524 24.8464 188.974 19.1869 181.376 19.1869C178.205 19.1869 175.311 20.3931 172.98 22.8055V19.7438H168.411V52.726H172.938V41.6395ZM172.796 32.0371C172.796 27.3977 176.808 23.4548 181.187 23.4548C185.897 23.4548 189.814 27.1658 189.814 32.3614C189.814 37.2321 185.85 40.9437 181.234 40.9437C176.761 40.9437 172.796 37.0932 172.796 32.0371ZM198.584 44.6547H203.057V19.7438H198.584V44.6547ZM203.057 16.8216V11.6725H198.584V16.8216H203.057ZM228.655 44.6547H233.229V19.7438H228.655V22.7589C226.277 20.3006 223.389 19.0945 219.987 19.0945C216.205 19.0945 213.27 20.3007 210.75 22.945C208.418 25.3568 207.158 28.6039 207.158 32.083C207.158 39.5515 212.661 45.211 220.265 45.211C223.436 45.211 226.324 44.0048 228.655 41.593V44.6547ZM211.827 32.0371C211.827 27.1658 215.738 23.4548 220.407 23.4548C224.88 23.4548 228.892 27.3053 228.892 32.3614C228.892 37.0002 224.88 40.9437 220.495 40.9437C215.785 40.9437 211.827 37.2321 211.827 32.0371ZM244.744 44.6547V39.0876H240.176V44.6547H244.744ZM256.171 41.6395C258.591 44.0978 261.484 45.304 264.887 45.304C268.668 45.304 271.603 44.0978 274.124 41.4535C276.449 39.0417 277.757 35.794 277.757 32.3149C277.757 24.8464 272.206 19.1869 264.609 19.1869C261.437 19.1869 258.549 20.3931 256.218 22.8055V19.7438H251.644V52.726H256.171V41.6395ZM256.029 32.0371C256.029 27.3977 260.041 23.4548 264.419 23.4548C269.13 23.4548 273.047 27.1658 273.047 32.3614C273.047 37.2321 269.082 40.9437 264.467 40.9437C259.993 40.9437 256.029 37.0932 256.029 32.0371ZM286.384 44.6547V30.7844C286.384 26.4241 287.781 24.3366 292.024 24.0117V19.3264C289.461 19.3729 287.597 20.3931 286.106 22.62V19.7438H281.864V44.6547H286.384ZM293.846 32.2225C293.846 35.562 295.195 38.9952 297.574 41.4535C300.047 44.0513 303.172 45.3505 306.805 45.3505C310.444 45.3505 313.663 43.8659 316.178 41.1291C318.373 38.7168 319.675 35.3301 319.675 31.8976C319.675 28.5574 318.326 25.3103 315.852 22.8055C313.337 20.2542 310.213 18.955 306.574 18.955C303.172 18.955 299.905 20.4396 297.39 23.1304C295.059 25.5887 293.846 28.6969 293.846 32.2225ZM298.509 32.176C298.509 27.0268 302.237 23.4088 306.757 23.4088C311.379 23.4088 315.012 26.9803 315.012 32.1295C315.012 37.2321 311.379 40.8972 306.805 40.8972C302.101 40.8972 298.509 37.1862 298.509 32.176Z" fill="#424242"/>
<path d="M8.08393 15.7941L53.2876 60.764L50.0211 64.0138L4.81738 19.0438L8.08393 15.7941Z" fill="#00AAFF"/>
<path fill-rule="evenodd" clip-rule="evenodd" d="M1.71595 11H11.1836C12.1304 11 12.8996 11.77 12.8996 12.7118V22.1265C12.8996 23.0678 12.1304 23.8378 11.1836 23.8378H1.71595C0.769189 23.8378 0 23.0678 0 22.1265V12.7118C0 11.77 0.769189 11 1.71595 11Z" fill="#00AAFF"/>
<path fill-rule="evenodd" clip-rule="evenodd" d="M24.3198 10.9999H33.7816C34.7283 10.9999 35.5035 11.7698 35.5035 12.7117V22.1264C35.5035 23.0677 34.7283 23.8377 33.7816 23.8377H24.3198C23.3731 23.8377 22.5979 23.0677 22.5979 22.1264V12.7117C22.5979 11.7698 23.3731 10.9999 24.3198 10.9999Z" fill="#AAAAAA"/>
<path fill-rule="evenodd" clip-rule="evenodd" d="M46.9238 10.9999H56.3855C57.3323 10.9999 58.1075 11.7698 58.1075 12.7117V22.1264C58.1075 23.0677 57.3323 23.8377 56.3855 23.8377H46.9238C45.977 23.8377 45.2019 23.0677 45.2019 22.1264V12.7117C45.2019 11.7698 45.977 10.9999 46.9238 10.9999Z" fill="#AAAAAA"/>
<path fill-rule="evenodd" clip-rule="evenodd" d="M1.71595 33.485H11.1836C12.1304 33.485 12.8996 34.255 12.8996 35.1969V44.611C12.8996 45.5529 12.1304 46.3229 11.1836 46.3229H1.71595C0.769189 46.3229 0 45.5529 0 44.611V35.1969C0 34.255 0.769189 33.485 1.71595 33.485Z" fill="#00AAFF"/>
<path fill-rule="evenodd" clip-rule="evenodd" d="M24.3198 33.485H33.7816C34.7283 33.485 35.5035 34.255 35.5035 35.1969V44.611C35.5035 45.5529 34.7283 46.3229 33.7816 46.3229H24.3198C23.3731 46.3229 22.5979 45.5529 22.5979 44.611V35.1969C22.5979 34.255 23.3731 33.485 24.3198 33.485Z" fill="#00AAFF"/>
<path fill-rule="evenodd" clip-rule="evenodd" d="M46.9238 33.485H56.3855C57.3323 33.485 58.1075 34.255 58.1075 35.1969V44.611C58.1075 45.5529 57.3323 46.3229 56.3855 46.3229H46.9238C45.977 46.3229 45.2019 45.5529 45.2019 44.611V35.1969C45.2019 34.255 45.977 33.485 46.9238 33.485Z" fill="#00AAFF"/>
<path fill-rule="evenodd" clip-rule="evenodd" d="M1.71595 55.9703H11.1836C12.1304 55.9703 12.8996 56.7403 12.8996 57.6816V67.0963C12.8996 68.0376 12.1304 68.8081 11.1836 68.8081H1.71595C0.769189 68.8081 0 68.0376 0 67.0963V57.6816C0 56.7403 0.769189 55.9703 1.71595 55.9703Z" fill="#00AAFF"/>
<path fill-rule="evenodd" clip-rule="evenodd" d="M24.3198 55.9703H33.7816C34.7283 55.9703 35.5035 56.7403 35.5035 57.6816V67.0963C35.5035 68.0376 34.7283 68.8081 33.7816 68.8081H24.3198C23.3731 68.8081 22.5979 68.0376 22.5979 67.0963V57.6816C22.5979 56.7403 23.3731 55.9703 24.3198 55.9703Z" fill="#AAAAAA"/>
<path fill-rule="evenodd" clip-rule="evenodd" d="M46.9238 55.9703H56.3855C57.3323 55.9703 58.1075 56.7403 58.1075 57.6816V67.0963C58.1075 68.0376 57.3323 68.8081 56.3855 68.8081H46.9238C45.977 68.8081 45.2019 68.0376 45.2019 67.0963V57.6816C45.2019 56.7403 45.977 55.9703 46.9238 55.9703Z" fill="#00AAFF"/>
<path d="M8.76233 17.4211L8.76281 62.3911H4.14257L4.14209 17.4211L8.76233 17.4211Z" fill="#00AAFF"/>
<path d="M53.9654 39.904L53.966 62.389L49.3458 62.3891L49.3452 39.9041L53.9654 39.904Z" fill="#00AAFF"/>
<path d="M51.6558 15.1244V19.7207H32.5459V15.1244H51.6558Z" fill="#AAAAAA"/>
<path d="M78.9106 63.0696H77.6776L74.7076 58.5696V63.0696H73.4746V56.4096H74.7076L77.6776 60.9096V56.4096H78.9106V63.0696Z" fill="#00AAFF"/>
<path d="M85.1497 63.0696H81.5767V56.4096H85.1497V57.6066H82.8097V59.1456H85.0507V60.3426H82.8097V61.8726H85.1497V63.0696Z" fill="#00AAFF"/>
<path d="M90.8245 57.6066H89.5915V63.0696H88.3585V57.6066H87.1255V56.4096H90.8245V57.6066Z" fill="#00AAFF"/>
<path d="M100.355 56.4096L98.4197 63.0696H97.4387L96.3497 58.6686L95.2607 63.0696H94.2797L92.3447 56.4096H93.6047L94.7657 61.0716L95.8997 56.4096H96.7997L97.9337 61.0716L99.0947 56.4096H100.355Z" fill="#00AAFF"/>
<path d="M109.133 59.7756C109.133 60.7416 108.794 61.5606 108.116 62.2326C107.444 62.8986 106.613 63.2316 105.623 63.2316C104.633 63.2316 103.799 62.8986 103.121 62.2326C102.449 61.5606 102.113 60.7416 102.113 59.7756C102.113 58.8036 102.449 57.9816 103.121 57.3096C103.799 56.6316 104.633 56.2926 105.623 56.2926C106.613 56.2926 107.444 56.6316 108.116 57.3096C108.794 57.9816 109.133 58.8036 109.133 59.7756ZM107.9 59.7486C107.9 59.1246 107.681 58.5936 107.243 58.1556C106.811 57.7116 106.271 57.4896 105.623 57.4896C104.969 57.4896 104.426 57.7086 103.994 58.1466C103.562 58.5846 103.346 59.1186 103.346 59.7486C103.346 60.3846 103.565 60.9246 104.003 61.3686C104.441 61.8126 104.978 62.0346 105.614 62.0346C106.268 62.0346 106.811 61.8126 107.243 61.3686C107.681 60.9186 107.9 60.3786 107.9 59.7486Z" fill="#00AAFF"/>
<path d="M115.954 63.0696H114.433L112.705 60.6126L112.687 63.0696H111.454V56.4096H113.38C114.352 56.4096 115.048 56.6826 115.468 57.2286C115.744 57.5886 115.882 58.0206 115.882 58.5246C115.882 59.0706 115.717 59.5416 115.387 59.9376C115.057 60.3336 114.622 60.5586 114.082 60.6126L115.954 63.0696ZM114.649 58.5966C114.649 58.1826 114.481 57.8976 114.145 57.7416C113.953 57.6516 113.71 57.6066 113.416 57.6066H112.687V59.5866H113.416C113.716 59.5866 113.956 59.5446 114.136 59.4606C114.478 59.3046 114.649 59.0166 114.649 58.5966Z" fill="#00AAFF"/>
<path d="M122.894 63.0696H121.418L119.348 60.1536V63.0696H118.115V56.4096H119.348V59.2986L121.418 56.4096H122.894L120.383 59.6856L122.894 63.0696Z" fill="#00AAFF"/>
<path d="M132.501 61.1256C132.501 61.7196 132.297 62.2206 131.889 62.6286C131.487 63.0306 130.971 63.2316 130.341 63.2316C129.789 63.2316 129.306 63.0636 128.892 62.7276C128.424 62.3436 128.19 61.8336 128.19 61.1976H129.477C129.477 61.4496 129.564 61.6536 129.738 61.8096C129.912 61.9596 130.122 62.0346 130.368 62.0346C130.638 62.0346 130.854 61.9566 131.016 61.8006C131.184 61.6386 131.268 61.4376 131.268 61.1976C131.268 60.9036 131.157 60.6606 130.935 60.4686C130.785 60.3426 130.572 60.2316 130.296 60.1356C129.732 59.9436 129.33 59.7546 129.09 59.5686C128.652 59.2326 128.433 58.7706 128.433 58.1826C128.433 57.6966 128.598 57.2736 128.928 56.9136C129.306 56.4996 129.801 56.2926 130.413 56.2926C131.013 56.2926 131.493 56.4906 131.853 56.8866C132.177 57.2466 132.339 57.6786 132.339 58.1826H131.07C131.07 57.9966 131.016 57.8406 130.908 57.7146C130.782 57.5646 130.605 57.4896 130.377 57.4896C130.143 57.4896 129.966 57.5586 129.846 57.6966C129.726 57.8286 129.666 57.9936 129.666 58.1916C129.666 58.4256 129.762 58.6116 129.954 58.7496C130.068 58.8336 130.257 58.9176 130.521 59.0016C131.097 59.1816 131.511 59.3676 131.763 59.5596C132.255 59.9316 132.501 60.4536 132.501 61.1256Z" fill="#00AAFF"/>
<path d="M138.365 63.0696H134.792V56.4096H138.365V57.6066H136.025V59.1456H138.266V60.3426H136.025V61.8726H138.365V63.0696Z" fill="#00AAFF"/>
<path d="M147.136 58.3176H145.732C145.534 58.0656 145.315 57.8736 145.075 57.7416C144.775 57.5736 144.436 57.4896 144.058 57.4896C143.41 57.4896 142.87 57.7146 142.438 58.1646C142.012 58.6086 141.799 59.1336 141.799 59.7396C141.799 60.3756 142.015 60.9186 142.447 61.3686C142.885 61.8126 143.425 62.0346 144.067 62.0346C144.379 62.0346 144.673 61.9716 144.949 61.8456C145.225 61.7196 145.465 61.5246 145.669 61.2606H147.1C146.818 61.8666 146.419 62.3406 145.903 62.6826C145.357 63.0486 144.733 63.2316 144.031 63.2316C142.957 63.2316 142.09 62.8416 141.43 62.0616C140.854 61.3776 140.566 60.6036 140.566 59.7396C140.566 58.8936 140.851 58.1346 141.421 57.4626C142.087 56.6826 142.963 56.2926 144.049 56.2926C144.745 56.2926 145.363 56.4696 145.903 56.8236C146.443 57.1776 146.854 57.6756 147.136 58.3176Z" fill="#00AAFF"/>
<path d="M153.906 60.5676C153.906 61.4616 153.681 62.1426 153.231 62.6106C152.835 63.0246 152.304 63.2316 151.638 63.2316C151.044 63.2316 150.552 63.0636 150.162 62.7276C149.634 62.2716 149.37 61.5516 149.37 60.5676V56.4096H150.603V60.6126C150.603 61.0146 150.651 61.3176 150.747 61.5216C150.909 61.8636 151.209 62.0346 151.647 62.0346C152.079 62.0346 152.373 61.8636 152.529 61.5216C152.625 61.3116 152.673 61.0086 152.673 60.6126V56.4096H153.906V60.5676Z" fill="#00AAFF"/>
<path d="M161.067 63.0696H159.546L157.818 60.6126L157.8 63.0696H156.567V56.4096H158.493C159.465 56.4096 160.161 56.6826 160.581 57.2286C160.857 57.5886 160.995 58.0206 160.995 58.5246C160.995 59.0706 160.83 59.5416 160.5 59.9376C160.17 60.3336 159.735 60.5586 159.195 60.6126L161.067 63.0696ZM159.762 58.5966C159.762 58.1826 159.594 57.8976 159.258 57.7416C159.066 57.6516 158.823 57.6066 158.529 57.6066H157.8V59.5866H158.529C158.829 59.5866 159.069 59.5446 159.249 59.4606C159.591 59.3046 159.762 59.0166 159.762 58.5966Z" fill="#00AAFF"/>
<path d="M164.488 63.0696H163.255V56.4096H164.488V63.0696Z" fill="#00AAFF"/>
<path d="M170.322 57.6066H169.089V63.0696H167.856V57.6066H166.623V56.4096H170.322V57.6066Z" fill="#00AAFF"/>
<path d="M177.396 56.4096L175.209 60.6126V63.0696H173.976V60.6126L171.789 56.4096H173.139L174.597 59.4786L176.046 56.4096H177.396Z" fill="#00AAFF"/>
<path d="M187.219 58.4886C187.219 59.0286 187.066 59.4756 186.76 59.8296C186.346 60.3096 185.704 60.5496 184.834 60.5496H184.204V63.0696H182.971V56.4096H184.834C185.758 56.4096 186.421 56.6766 186.823 57.2106C187.087 57.5646 187.219 57.9906 187.219 58.4886ZM185.986 58.4796C185.986 58.1256 185.851 57.8796 185.581 57.7416C185.407 57.6516 185.191 57.6066 184.933 57.6066H184.204V59.3526H184.933C185.299 59.3526 185.566 59.2776 185.734 59.1276C185.902 58.9776 185.986 58.7616 185.986 58.4796Z" fill="#00AAFF"/>
<path d="M192.714 63.0696H189.447V56.4096H190.68V61.8726H192.714V63.0696Z" fill="#00AAFF"/>
<path d="M200.836 63.0696H199.477L198.793 61.3506H196.345L195.661 63.0696H194.302L197.074 56.4096H198.064L200.836 63.0696ZM198.325 60.1536L197.569 58.2096L196.813 60.1536H198.325Z" fill="#00AAFF"/>
<path d="M206.085 57.6066H204.852V63.0696H203.619V57.6066H202.386V56.4096H206.085V57.6066Z" fill="#00AAFF"/>
<path d="M211.557 57.6066H209.406V59.1456H211.458V60.3426H209.406V63.0696H208.173V56.4096H211.557V57.6066Z" fill="#00AAFF"/>
<path d="M220.615 59.7756C220.615 60.7416 220.276 61.5606 219.598 62.2326C218.926 62.8986 218.095 63.2316 217.105 63.2316C216.115 63.2316 215.281 62.8986 214.603 62.2326C213.931 61.5606 213.595 60.7416 213.595 59.7756C213.595 58.8036 213.931 57.9816 214.603 57.3096C215.281 56.6316 216.115 56.2926 217.105 56.2926C218.095 56.2926 218.926 56.6316 219.598 57.3096C220.276 57.9816 220.615 58.8036 220.615 59.7756ZM219.382 59.7486C219.382 59.1246 219.163 58.5936 218.725 58.1556C218.293 57.7116 217.753 57.4896 217.105 57.4896C216.451 57.4896 215.908 57.7086 215.476 58.1466C215.044 58.5846 214.828 59.1186 214.828 59.7486C214.828 60.3846 215.047 60.9246 215.485 61.3686C215.923 61.8126 216.46 62.0346 217.096 62.0346C217.75 62.0346 218.293 61.8126 218.725 61.3686C219.163 60.9186 219.382 60.3786 219.382 59.7486Z" fill="#00AAFF"/>
<path d="M227.435 63.0696H225.914L224.186 60.6126L224.168 63.0696H222.935V56.4096H224.861C225.833 56.4096 226.529 56.6826 226.949 57.2286C227.225 57.5886 227.363 58.0206 227.363 58.5246C227.363 59.0706 227.198 59.5416 226.868 59.9376C226.538 60.3336 226.103 60.5586 225.563 60.6126L227.435 63.0696ZM226.13 58.5966C226.13 58.1826 225.962 57.8976 225.626 57.7416C225.434 57.6516 225.191 57.6066 224.897 57.6066H224.168V59.5866H224.897C225.197 59.5866 225.437 59.5446 225.617 59.4606C225.959 59.3046 226.13 59.0166 226.13 58.5966Z" fill="#00AAFF"/>
<path d="M236.472 63.0696H235.239V58.0836L233.556 63.0696H232.512L230.829 58.0836V63.0696H229.596V56.4096H231.27L233.034 61.5036L234.798 56.4096H236.472V63.0696Z" fill="#00AAFF"/>
</g>
<defs>
<clipPath id="clip0_3342_8676">
<rect width="447" height="80" fill="white" transform="translate(0.5)"/>
</clipPath>
</defs>
</svg>
