<svg width="128" height="24" viewBox="0 0 128 24" fill="none" xmlns="http://www.w3.org/2000/svg">
<g id="Group">
<path id="Vector" d="M36.6474 20.3915C35.2254 19.3924 34.3565 17.9276 34.0306 15.9875H36.9337C37.5459 18.4708 39.4023 19.7125 42.5128 19.7125C43.9742 19.7125 45.1097 19.4118 45.9392 18.8201C46.7588 18.2283 47.1735 17.4038 47.1735 16.3464C47.1735 15.4443 46.8871 14.7556 46.3243 14.2996C45.7615 13.8437 44.7444 13.4751 43.2928 13.2132L39.5011 12.5342C37.7928 12.2335 36.5387 11.6805 35.7488 10.8851C34.949 10.08 34.554 8.99351 34.554 7.62575C34.554 5.90877 35.2057 4.56041 36.5289 3.58067C37.8422 2.60092 39.6393 2.1159 41.9203 2.1159C44.2013 2.1159 45.9886 2.60092 47.3315 3.56127C48.6744 4.52161 49.4742 5.90877 49.7507 7.71305H46.9563C46.5119 5.41405 44.8234 4.2694 41.8907 4.2694C40.5083 4.2694 39.4122 4.55071 38.5827 5.10364C37.7533 5.65656 37.3484 6.41319 37.3484 7.35414C37.3484 8.19807 37.6151 8.8383 38.1384 9.24572C38.6617 9.66284 39.6196 10.0024 41.002 10.2643L44.774 10.9724C46.5613 11.3119 47.8746 11.8939 48.7139 12.7282C49.5532 13.5527 49.9778 14.678 49.9778 16.0942C49.9778 17.8985 49.3064 19.3245 47.9536 20.3624C46.6008 21.4004 44.7444 21.9145 42.3844 21.9145C40.0244 21.9145 38.0792 21.4198 36.6572 20.4206L36.6474 20.3915ZM56.8011 20.634C55.3594 19.7998 54.2436 18.626 53.4536 17.1322C52.6538 15.6383 52.2588 13.9213 52.2588 12.0006C52.2588 10.08 52.6538 8.34358 53.4536 6.84001C54.2535 5.34615 55.3693 4.18209 56.8011 3.34786C58.2328 2.51362 59.8917 2.1062 61.7481 2.1062C63.6045 2.1062 65.2536 2.52332 66.6952 3.34786C68.1369 4.17239 69.2527 5.33645 70.0427 6.84001C70.8425 8.33388 71.2375 10.0606 71.2375 12.0006C71.2375 13.9407 70.8425 15.6286 70.0427 17.1322C69.2428 18.626 68.127 19.7998 66.6952 20.634C65.2634 21.4683 63.6045 21.8951 61.7481 21.8951C59.8917 21.8951 58.2427 21.478 56.8011 20.634ZM55.942 15.9875C56.4949 17.1419 57.275 18.0343 58.2822 18.6745C59.2894 19.3148 60.4447 19.6349 61.7481 19.6349C63.0516 19.6349 64.2069 19.3148 65.2141 18.6745C66.2213 18.0343 67.0013 17.1419 67.5543 15.9875C68.1073 14.8429 68.3838 13.5139 68.3838 12.0006C68.3838 10.4874 68.1073 9.15842 67.5642 8.00407C67.0211 6.84971 66.241 5.94757 65.2338 5.31705C64.2266 4.68652 63.0614 4.3664 61.7383 4.3664C60.4151 4.3664 59.2499 4.68652 58.2427 5.31705C57.2355 5.94757 56.4554 6.84001 55.9124 8.00407C55.3693 9.15842 55.0928 10.4971 55.0928 12.0006C55.0928 13.5042 55.3693 14.8332 55.9222 15.9875H55.942ZM74.1998 2.39721H76.9942V19.2663H87.6389V21.6138H74.2097V2.39721H74.1998ZM97.8984 2.39721H101.058L108.849 21.6138H105.916L103.902 16.4725H94.9262L92.8822 21.6138H90.0877L97.8786 2.39721H97.8984ZM103.043 14.2317L99.4487 5.07453L95.8248 14.2317H103.043ZM111.328 2.39721H120.471C122.584 2.39721 124.174 2.86284 125.241 3.78438C126.317 4.70592 126.85 6.07368 126.85 7.87796C126.85 9.51733 126.386 10.8075 125.468 11.7581C124.549 12.7088 123.216 13.2908 121.469 13.4945L127.304 21.6041H123.878L118.18 13.5527H114.092V21.6041H111.298V2.39721H111.328ZM120.244 11.2149C121.548 11.2149 122.515 10.953 123.147 10.4195C123.779 9.89565 124.095 9.07111 124.095 7.96526C124.095 6.85941 123.779 6.06398 123.147 5.53045C122.515 4.99693 121.548 4.73502 120.244 4.73502H114.122V11.2052H120.244V11.2149Z" fill="#FE6E36"/>
<path id="Vector_2" d="M22.8723 3.9783C19.9989 0.932364 15.4764 -0.532401 11.0625 0.175731C7.28062 0.738356 3.95294 2.90155 1.92868 6.1221C-0.0462035 9.25534 -0.530051 13.0288 0.595634 16.4725C1.62257 19.7221 4.14055 22.5061 7.33986 23.8933L7.5966 24L7.9817 23.2434L7.73484 23.1076C5.34523 21.7883 3.52834 19.7027 2.61989 17.2388C1.08935 13.2325 2.26441 8.489 5.48347 5.69528C7.97183 3.51268 11.0724 2.62024 14.2125 3.18287C17.5105 3.77459 20.3346 5.89899 21.9738 9.00313C24.0375 12.9221 23.4253 17.8111 20.4136 21.4585L20.2556 21.6525L20.7888 22.2345L20.9962 22.1084C23.2574 20.7213 24.9953 18.4028 25.7655 15.7643C26.99 11.6707 25.8544 7.04364 22.8723 3.9686V3.9783Z" fill="#FE6E36"/>
</g>
</svg>
