<svg width="448" height="80" viewBox="0 0 448 80" fill="none" xmlns="http://www.w3.org/2000/svg">
<g clip-path="url(#clip0_4118_5072)">
<path fill-rule="evenodd" clip-rule="evenodd" d="M98.8114 37.045H99.1472C102.994 37.045 106.112 40.1933 106.112 44.077C106.112 47.9605 102.994 51.1088 99.1472 51.1088H83.8244C80.6946 51.1088 78.0469 49.0245 77.169 46.1555C76.8283 45.0424 77.7951 44.077 78.9491 44.077C80.0283 44.077 80.8822 45.0083 81.6318 45.8262C81.6836 45.8829 81.7351 45.9389 81.786 45.9941C82.2945 46.5451 83.0197 46.8896 83.8244 46.8896H99.1472C100.686 46.8896 101.933 45.6304 101.933 44.077C101.933 42.5235 100.686 41.2642 99.1472 41.2642H97.7542L97.7139 41.2638H83.8249C79.9784 41.2638 76.8601 38.1155 76.8601 34.2318C76.8601 30.3483 79.9784 27.2 83.8249 27.2H99.1477C102.278 27.2 104.925 29.2845 105.803 32.1533C106.144 33.2664 105.177 34.2318 104.023 34.2318C102.944 34.2318 102.09 33.3005 101.34 32.4826C101.288 32.4259 101.237 32.3699 101.186 32.3147C100.678 31.7637 99.9524 31.4192 99.1477 31.4192H83.8249C82.2863 31.4192 81.0391 32.6784 81.0391 34.2318C81.0391 35.7853 82.2863 37.0446 83.8249 37.0446H98.7711L98.8114 37.045ZM112.379 29.3101C112.379 28.145 113.315 27.2005 114.469 27.2005C115.623 27.2005 116.558 28.145 116.558 29.3101V48.9994C116.558 50.1645 115.623 51.109 114.469 51.109C113.315 51.109 112.379 50.1645 112.379 48.9994V29.3101ZM126.694 27.2005C124.943 27.2005 123.524 28.6331 123.524 30.4005V47.909C123.524 49.6762 124.943 51.109 126.694 51.109H145.115C149.347 51.109 152.777 47.6458 152.777 43.3738V34.9355C152.777 30.6635 149.347 27.2005 145.115 27.2005H126.694ZM127.703 33.0197C127.703 32.136 128.413 31.4197 129.288 31.4197H145.115C147.039 31.4197 148.598 32.9938 148.598 34.9355V43.3738C148.598 45.3157 147.039 46.8898 145.115 46.8898H129.288C128.413 46.8898 127.703 46.1734 127.703 45.2898V33.0197ZM176.457 37.0451C177.612 37.0451 178.547 37.9896 178.547 39.1546C178.547 40.3197 177.612 41.2642 176.457 41.2642H168.796C167.642 41.2642 166.707 40.3197 166.707 39.1546C166.707 37.9896 167.642 37.0451 168.796 37.0451H176.457ZM164.615 27.2005C160.384 27.2005 156.955 30.6635 156.955 34.9355V43.3738C156.955 47.6458 160.384 51.109 164.615 51.109H184.117C185.271 51.109 186.208 50.1645 186.208 48.9994C186.208 47.8342 185.271 46.8898 184.117 46.8898H164.615C162.693 46.8898 161.134 45.3157 161.134 43.3738V34.9355C161.134 32.9938 162.693 31.4197 164.615 31.4197H184.117C185.271 31.4197 186.208 30.4752 186.208 29.3101C186.208 28.145 185.271 27.2005 184.117 27.2005H164.615Z" fill="#1D1D1D"/>
<path fill-rule="evenodd" clip-rule="evenodd" d="M60.5592 17.7083L37.2686 3.33813C36.9159 1.43795 35.2641 0 33.2797 0C31.2952 0 29.6435 1.43795 29.2909 3.33813L6.0002 17.7083C5.42344 17.3904 4.76186 17.2098 4.05849 17.2098C1.81705 17.2098 0 19.0443 0 21.3074C0 22.824 0.816163 24.1483 2.02925 24.8568V53.8165C0.816163 54.525 0 55.8493 0 57.3659C0 59.629 1.81705 61.4635 4.05849 61.4635C4.70462 61.4635 5.31549 61.311 5.85774 61.0398L29.2947 75.3557C29.6553 77.2456 31.3024 78.6733 33.2797 78.6733C35.257 78.6733 36.904 77.2456 37.2648 75.3557L60.7016 61.0398C61.2439 61.311 61.8547 61.4635 62.5009 61.4635C64.7423 61.4635 66.5593 59.629 66.5593 57.3659C66.5593 55.8493 65.7432 54.525 64.5301 53.8165V24.8568C65.7432 24.1483 66.5593 22.824 66.5593 21.3074C66.5593 19.0443 64.7423 17.2098 62.5009 17.2098C61.7975 17.2098 61.136 17.3904 60.5592 17.7083ZM35.8682 71.4195L58.4505 57.6258C58.4451 57.5398 58.4424 57.4533 58.4424 57.3659C58.4424 55.8493 59.2586 54.525 60.4717 53.8165V24.9605L48.9861 32.047C48.9622 32.0624 48.9381 32.0773 48.9137 32.0917L37.1097 39.3747L48.9089 46.6693C49.1005 46.7813 49.2758 46.9261 49.4255 47.1014C49.5303 47.2237 49.6192 47.357 49.6915 47.4979C49.8645 47.8336 49.9366 48.1986 49.9168 48.5549C49.9044 48.7834 49.854 49.012 49.7631 49.2312C49.6571 49.4882 49.4987 49.725 49.2924 49.9235C49.1748 50.0373 49.0453 50.1347 48.9073 50.2152L35.3089 58.5214V71.0262C35.5065 71.1416 35.6936 71.2733 35.8682 71.4195ZM31.2504 71.0262V58.5214L17.6186 50.1947C16.6598 49.6091 16.3527 48.3494 16.9329 47.3813C17.5129 46.4131 18.7605 46.1032 19.7195 46.689L33.2797 54.9718L43.9873 48.4314L32.2199 41.1563C31.5835 40.7629 31.2377 40.0723 31.2504 39.3698C31.2399 38.6688 31.5862 37.9805 32.2215 37.5885L43.9987 30.3221L33.2797 23.7085L19.7653 32.0467C19.1317 32.4566 18.2962 32.493 17.611 32.0702L6.08774 24.9605V53.8165C7.30083 54.525 8.11699 55.8493 8.11699 57.3659C8.11699 57.4533 8.11428 57.5398 8.10895 57.6258L30.6913 71.4195C30.8659 71.2733 31.0529 71.1416 31.2504 71.0262ZM35.8527 7.26661C35.1524 7.84685 34.2563 8.19512 33.2797 8.19512C32.3031 8.19512 31.4071 7.84685 30.7068 7.26661L8.11575 21.2051C8.11658 21.2392 8.11699 21.2733 8.11699 21.3074C8.11699 21.3416 8.11658 21.3757 8.11575 21.4096L18.6691 27.921L32.2215 19.5592C32.8711 19.1584 33.6882 19.1584 34.3378 19.5592L47.8902 27.921L58.4437 21.4096C58.4427 21.3757 58.4424 21.3416 58.4424 21.3074C58.4424 21.2733 58.4427 21.2392 58.4437 21.2051L35.8527 7.26661Z" fill="#06EAFD"/>
</g>
<defs>
<clipPath id="clip0_4118_5072">
<rect width="447" height="80" fill="white" transform="translate(0.5)"/>
</clipPath>
</defs>
</svg>
