<svg width="80" height="79" viewBox="0 0 80 79" fill="none" xmlns="http://www.w3.org/2000/svg">
<g clip-path="url(#clip0_1088_148)">
<mask id="mask0_1088_148" style="mask-type:luminance" maskUnits="userSpaceOnUse" x="16" y="15" width="64" height="64">
<path d="M79.89 15.7401H16.72V78.8901H79.89V15.7401Z" fill="white"/>
</mask>
<g mask="url(#mask0_1088_148)">
<path d="M30.15 33.3101C25.31 33.3101 21.37 29.3701 21.37 24.5301C21.37 19.6901 25.31 15.7501 30.15 15.7501C34.99 15.7501 38.93 19.6901 38.93 24.5301C38.93 29.3701 34.99 33.3101 30.15 33.3101ZM30.15 18.3501C26.74 18.3501 23.97 21.1201 23.97 24.5301C23.97 27.9401 26.74 30.7101 30.15 30.7101C33.56 30.7101 36.33 27.9401 36.33 24.5301C36.33 21.1201 33.56 18.3501 30.15 18.3501Z" fill="#2B323A"/>
<path d="M66.36 33.3101C61.52 33.3101 57.58 29.3701 57.58 24.5301C57.58 19.6901 61.52 15.7501 66.36 15.7501C71.2 15.7501 75.14 19.6901 75.14 24.5301C75.14 29.3701 71.2 33.3101 66.36 33.3101ZM66.36 18.3501C62.95 18.3501 60.18 21.1201 60.18 24.5301C60.18 27.9401 62.95 30.7101 66.36 30.7101C69.77 30.7101 72.54 27.9401 72.54 24.5301C72.54 21.1201 69.77 18.3501 66.36 18.3501Z" fill="#FE6E36"/>
<path d="M48.33 51.7301L39.47 36.5701H21.37C18.28 36.5701 16.72 38.0001 16.72 41.2601V55.3001C16.72 57.7501 18.13 58.4501 21.15 58.4501V74.4701C21.15 76.9201 23.13 78.9001 25.58 78.9001H34.42C36.87 78.9001 38.85 76.9201 38.85 74.4701V55.9801H36.22V76.2801H23.78V55.9801H19.35V39.2101H37.95L46.32 53.4801C46.74 54.0401 47.55 54.3201 48.33 54.3301" fill="#2B323A"/>
<path d="M48.32 51.7201L57.16 36.5701H75.26C78.36 36.5701 79.91 38.0001 79.91 41.2601V55.3001C79.91 57.7501 78.5 58.4501 75.48 58.4501V74.4701C75.48 76.9201 73.5 78.9001 71.05 78.9001H62.21C59.76 78.9001 57.78 76.9201 57.78 74.4701V55.9801H60.41V76.2801H72.86V55.9801H77.29V39.2101H58.69L50.32 53.4801C49.9 54.0401 49.1 54.3201 48.32 54.3401" fill="#2B323A"/>
</g>
</g>
<defs>
<clipPath id="clip0_1088_148">
<rect width="63.38" height="63.38" fill="white" transform="translate(16.62 15.6201)"/>
</clipPath>
</defs>
</svg>
