<svg width="80" height="79" viewBox="0 0 80 79" fill="none" xmlns="http://www.w3.org/2000/svg">
<g clip-path="url(#clip0_1088_199)">
<path d="M55.8506 41.093L38.5319 57.9522L40.3575 59.8433L57.6762 42.9842L55.8506 41.093Z" fill="#FE6E36"/>
<path d="M41.7355 43.8925L39.9057 42.0062L36.1002 45.7299C35.7593 46.6451 35.7106 47.9376 36.0863 48.8598L39.704 52.7093L41.6103 50.8998L38.236 47.3158L41.7355 43.8995V43.8925Z" fill="#FE6E36"/>
<path d="M60.5059 51.6753L57.0482 47.7629L55.0863 49.5095L58.3492 53.1983L54.7454 56.5098L56.5125 58.452L60.5059 54.7842C60.8399 53.869 60.8816 52.5905 60.5059 51.6753Z" fill="#FE6E36"/>
<path d="M76.3475 27.2092H19.862C18.3662 27.2092 16.62 29.2352 16.62 30.4788V70.6432C16.62 71.8868 18.3662 73.9128 19.862 73.9128H76.3475C77.8433 73.9128 79.5895 71.8868 79.5895 70.6432V30.4788C79.5895 29.2352 77.8433 27.2092 76.3475 27.2092ZM76.9875 71.2999H19.222V29.8221H76.9945V71.2999H76.9875Z" fill="#2B323A"/>
<path d="M58.8362 21.6201H16.62V24.233H58.8362V21.6201Z" fill="#2B323A"/>
<path d="M79.5895 21.6201H75.9996V24.233H79.5895V21.6201Z" fill="#2B323A"/>
<path d="M72.8758 21.6201H69.2859V24.233H72.8758V21.6201Z" fill="#2B323A"/>
<path d="M65.6821 21.6201H62.0922V24.233H65.6821V21.6201Z" fill="#2B323A"/>
</g>
<defs>
<clipPath id="clip0_1088_199">
<rect width="63.38" height="63.38" fill="white" transform="translate(16.62 15.6201)"/>
</clipPath>
</defs>
</svg>
