<svg width="80" height="79" viewBox="0 0 80 79" fill="none" xmlns="http://www.w3.org/2000/svg">
<path d="M60.1756 40.4961H19.9643C18.4579 40.4961 16.7004 42.5247 16.7004 43.77V67.3706C16.7004 68.6159 18.4579 70.6445 19.9643 70.6445H60.1756C61.6821 70.6445 63.4395 68.6159 63.4395 67.3706V43.77C63.4395 42.5247 61.6821 40.4961 60.1756 40.4961ZM60.8184 68.0233H19.3216V43.1173H60.8184V68.0233Z" fill="#2B323A"/>
<path d="M79.9398 27.2296V48.1186C79.9398 49.3639 78.1823 51.3925 76.6759 51.3925H71.7549V48.7714H77.3186V26.5668H35.8319V32.1003H33.2107V27.2196C33.2107 25.9743 34.9682 23.9456 36.4746 23.9456H76.6859C78.1923 23.9456 79.9498 25.9743 79.9498 27.2196L79.9398 27.2296Z" fill="#2B323A"/>
<path d="M40.0398 62.4096C36.2737 62.4096 33.2107 59.3466 33.2107 55.5806C33.2107 51.8145 36.2737 48.7515 40.0398 48.7515C43.8058 48.7515 46.8689 51.8145 46.8689 55.5806C46.8689 59.3466 43.8058 62.4096 40.0398 62.4096ZM40.0398 51.3726C37.7199 51.3726 35.8319 53.2607 35.8319 55.5806C35.8319 57.9004 37.7199 59.7885 40.0398 59.7885C42.3597 59.7885 44.2477 57.9004 44.2477 55.5806C44.2477 53.2607 42.3597 51.3726 40.0398 51.3726Z" fill="#FE6E36"/>
</svg>
