<svg width="80" height="79" viewBox="0 0 80 79" fill="none" xmlns="http://www.w3.org/2000/svg">
<g clip-path="url(#clip0_1088_54)">
<path d="M48.2227 57.0408C44.8223 57.0408 42.0572 54.2742 42.0572 50.8719C42.0572 47.4695 44.8223 44.7029 48.2227 44.7029C51.6232 44.7029 54.3883 47.4695 54.3883 50.8719C54.3883 54.2742 51.6232 57.0408 48.2227 57.0408ZM48.2227 47.3019C46.2537 47.3019 44.6547 48.9017 44.6547 50.8719C44.6547 52.842 46.2537 54.4419 48.2227 54.4419C50.1918 54.4419 51.7908 52.842 51.7908 50.8719C51.7908 48.9017 50.1918 47.3019 48.2227 47.3019Z" fill="#2B323A"/>
<path d="M61.3777 48.2241L61.3428 48.0634C61.1962 47.8049 60.9867 47.5534 60.7493 47.3578L58.892 46.5404C57.684 46.0094 56.9648 44.7659 57.1114 43.4524L57.2999 41.6989C57.2441 41.3426 57.1044 40.9653 56.9019 40.6649L56.8391 40.616C55.5823 39.5471 54.1578 38.7227 52.6077 38.1708C52.2237 38.1219 51.7768 38.1568 51.3998 38.2965L49.9753 39.3375C48.907 40.1199 47.4756 40.1199 46.4143 39.3375L44.8223 38.1708C44.515 38.066 44.1519 38.0101 43.8098 38.031L43.74 38.052C42.2178 38.555 40.8143 39.3095 39.5575 40.3016L39.5156 40.3365C39.3061 40.616 39.1385 40.9583 39.0547 41.3006L39.2851 43.4454C39.4248 44.7589 38.7126 46.0024 37.5046 46.5334L35.2981 47.5045C35.0398 47.7071 34.8024 47.9866 34.6418 48.28L34.6139 48.4197C34.4463 49.272 34.3695 50.1453 34.3695 51.0186C34.3695 51.5915 34.4044 52.1714 34.4742 52.7373V52.7931C34.6208 53.1285 34.8652 53.4778 35.1515 53.7293L37.5116 54.7703C38.7196 55.3012 39.4388 56.5448 39.2921 57.8582L39.0058 60.4921C39.0757 60.9183 39.2712 61.3933 39.5575 61.7287C40.6048 62.56 41.7639 63.2307 42.9998 63.7198L43.1046 63.7617C43.4467 63.7896 43.8238 63.7407 44.1659 63.622L46.4212 61.9732C47.4896 61.1907 48.921 61.1907 49.9823 61.9732L51.9793 63.4403C52.3633 63.601 52.8451 63.6848 53.2641 63.629L53.292 63.615C54.6117 63.0631 55.8336 62.3015 56.9229 61.3654L57.0625 61.2466C57.2162 60.9881 57.3279 60.6807 57.3837 60.3803L57.1114 57.8582C56.9718 56.5448 57.684 55.3012 58.892 54.7703L60.7074 53.9669C61.0565 53.7014 61.3847 53.2962 61.5383 52.884C61.6221 52.2622 61.664 51.6404 61.664 51.0186C61.664 50.0825 61.5662 49.1393 61.3777 48.2241ZM59.0386 51.864L57.8446 52.3879C55.5962 53.38 54.2626 55.6855 54.5279 58.1307L54.7094 59.8144C54.1578 60.2406 53.5643 60.6039 52.9429 60.9183L51.5185 59.8773C49.5354 58.4241 46.8751 58.4241 44.8921 59.8773L43.321 61.03C42.7485 60.7576 42.1968 60.4362 41.6732 60.0729L41.8826 58.1447C42.148 55.6995 40.8143 53.394 38.5659 52.4019L36.9949 51.7103C36.9809 51.4867 36.9739 51.2562 36.9739 51.0326C36.9739 50.5505 37.0089 50.0615 37.0717 49.5864L38.5659 48.9227C40.8143 47.9307 42.148 45.6252 41.8826 43.18L41.75 41.9364C42.4412 41.4613 43.1814 41.0631 43.9564 40.7557L44.8921 41.4404C46.8751 42.8935 49.5354 42.8935 51.5185 41.4404L52.3214 40.8465C53.1454 41.1958 53.9204 41.643 54.6326 42.1809L54.5209 43.18C54.2556 45.6252 55.5892 47.9307 57.8376 48.9227L58.9408 49.4118C59.0176 49.9497 59.0595 50.4877 59.0595 51.0326C59.0595 51.312 59.0456 51.5915 59.0246 51.8779L59.0386 51.864Z" fill="#FE6E36"/>
<path d="M76.5716 27.2092H19.8738C18.3726 27.2092 16.62 29.2352 16.62 30.4788V70.6432C16.62 71.8868 18.3726 73.9128 19.8738 73.9128H76.5646C78.0658 73.9128 79.8185 71.8868 79.8185 70.6432V30.4788C79.8185 29.2352 78.0658 27.2092 76.5646 27.2092H76.5716ZM77.214 71.2999H19.2314V29.8221H77.214V71.2999Z" fill="#2B323A"/>
<path d="M58.9897 21.6201H16.62V24.233H58.9897V21.6201Z" fill="#2B323A"/>
<path d="M79.8184 21.6201H76.2155V24.233H79.8184V21.6201Z" fill="#2B323A"/>
<path d="M73.0873 21.6201H69.4844V24.233H73.0873V21.6201Z" fill="#2B323A"/>
<path d="M65.8675 21.6201H62.2645V24.233H65.8675V21.6201Z" fill="#2B323A"/>
</g>
<defs>
<clipPath id="clip0_1088_54">
<rect width="63.38" height="63.38" fill="white" transform="translate(16.62 15.6201)"/>
</clipPath>
</defs>
</svg>
