<?xml version="1.0" encoding="UTF-8"?> <svg xmlns="http://www.w3.org/2000/svg" width="1519" height="141" viewBox="0 0 1519 141" fill="none"> <path d="M109.433 52.2499V36.6401H37.5717V57.4532H104.314C105.667 57.4532 106.89 56.9623 107.985 55.9806C108.95 54.9334 109.433 53.6898 109.433 52.2499ZM109.433 109.682V94.0725C109.433 92.6978 108.95 91.4541 107.985 90.3416C106.954 89.2947 105.731 88.7709 104.314 88.7709H37.5717V109.682H109.433ZM140.245 5.32227V52.2499C140.245 59.973 138.088 66.9434 133.774 73.1615C138.088 79.3789 140.245 86.3492 140.245 94.0725V141H6.76001V5.32227H140.245Z" fill="#000000"></path> <path d="M153.768 5.32227H287.253V36.6401H184.579V57.4532H287.253V88.7709H184.579V109.682H287.253V141H153.768V5.32227Z" fill="#000000"></path> <path d="M300.775 5.32227H434.261V36.6401H331.587V141H300.775V5.32227ZM403.449 109.682V88.8689H331.587V109.682H403.449ZM300.775 5.32227H331.587V57.5513H434.261V141H300.775V5.32227Z" fill="#000000"></path> <path d="M496.85 141V5.32227H630.335V141H496.85ZM527.662 36.6401V109.682H599.524V36.6401H527.662Z" fill="#000000"></path> <path d="M643.857 5.32227H777.339V36.6401H674.669V141H643.857V5.32227ZM746.529 109.682V88.8689H674.669V109.682H746.529ZM643.857 5.32227H674.669V57.5513H777.339V141H643.857V5.32227Z" fill="#000000"></path> <path d="M790.865 141V5.32227H924.35V141H790.865ZM821.675 36.6401V109.682H893.54V36.6401H821.675Z" fill="#000000"></path> <path d="M937.875 5.32227H1071.36V88.7709H968.685V141H937.875V5.32227ZM968.685 36.6401V57.4532H1040.55V36.6401H968.685Z" fill="#000000"></path> <path d="M1084.88 141V5.32227H1218.36V141H1084.88ZM1115.69 36.6401V109.682H1187.55V36.6401H1115.69Z" fill="#000000"></path> <path d="M1334.56 5.32227H1365.37V141H1334.56V88.7709H1262.7V141H1231.89V5.32227H1262.7V57.4532H1334.56V5.32227Z" fill="#000000"></path> <path d="M1378.9 5.32227H1512.38V141H1481.57V88.7709H1409.71V141H1378.9V5.32227ZM1409.71 36.6401V57.4532H1481.57V36.6401H1409.71Z" fill="#000000"></path> </svg>
