<svg width="22" height="22" viewBox="0 0 22 22" fill="none" xmlns="http://www.w3.org/2000/svg">
<path d="M19.1767 4.31525C16.7842 1.77697 13.0187 0.556332 9.34366 1.14644C6.19478 1.6153 3.4241 3.41796 1.73867 6.10175C0.0943425 8.71278 -0.308517 11.8573 0.628748 14.7271C1.4838 17.4351 3.58031 19.7551 6.24411 20.9111L6.45788 21L6.77852 20.3695L6.57298 20.2563C4.58335 19.1569 3.07057 17.4189 2.31418 15.3657C1.03983 12.0271 2.0182 8.07417 4.69845 5.74607C6.7703 3.92723 9.35188 3.18353 11.9664 3.65239C14.7124 4.14549 17.0638 5.91582 18.4286 8.50261C20.1469 11.7684 19.6371 15.8426 17.1295 18.8821L16.998 19.0437L17.442 19.5288L17.6146 19.4237C19.4974 18.2677 20.9444 16.3357 21.5857 14.1369C22.6051 10.7256 21.6596 6.8697 19.1767 4.30717V4.31525Z" fill="#FE6E36"/>
</svg>
